<svg xmlns="http://www.w3.org/2000/svg" xmlns:xlink="http://www.w3.org/1999/xlink" width="500" height="371.477" viewBox="0 0 500 371.477"><defs><radialGradient id="a" cx="0.493" cy="0.504" r="0.476" gradientTransform="matrix(-0.713, 0.707, -0.784, -0.777, 1682.939, -775.564)" gradientUnits="objectBoundingBox"><stop offset="0.15" stop-color="#ffd17d"/><stop offset="0.282" stop-color="#c29f5f"/><stop offset="0.425" stop-color="#886f43"/><stop offset="0.564" stop-color="#57472b"/><stop offset="0.694" stop-color="#312818"/><stop offset="0.813" stop-color="#16120b"/><stop offset="0.919" stop-color="#060503"/><stop offset="1"/></radialGradient><radialGradient id="b" cx="0.496" cy="0.496" r="0.476" gradientTransform="matrix(-0.71, 0.707, -0.78, -0.777, 1655.731, -801.03)" xlink:href="#a"/><radialGradient id="c" cx="0.502" cy="0.496" r="0.473" gradientTransform="matrix(-0.711, 0.707, -0.782, -0.777, 1242.612, -608.578)" xlink:href="#a"/><radialGradient id="d" cx="0.497" cy="0.508" r="0.474" gradientTransform="translate(2766.24 -1306.592) rotate(135) scale(1 1.099)" xlink:href="#a"/><radialGradient id="e" cx="0.5" cy="0.497" r="0.474" gradientTransform="matrix(-0.707, 0.707, -0.777, -0.777, 2808.005, -1373.922)" xlink:href="#a"/><radialGradient id="f" cx="0.498" cy="0.508" r="0.474" gradientTransform="matrix(-0.716, 0.707, -0.787, -0.777, 2833.062, -1328.42)" xlink:href="#a"/><radialGradient id="g" cx="0.496" cy="0.503" r="0.476" gradientTransform="matrix(-0.713, 0.707, -0.784, -0.777, 1665.644, -791.311)" xlink:href="#a"/><radialGradient id="h" cx="0.501" cy="0.5" r="0.477" gradientTransform="matrix(-0.704, 0.707, -0.774, -0.777, 963.652, -459.92)" xlink:href="#a"/><radialGradient id="i" cx="0.498" cy="0.505" r="0.476" gradientTransform="matrix(-0.713, 0.707, -0.784, -0.777, 1674.726, -780.361)" xlink:href="#a"/><radialGradient id="j" cx="0.501" cy="0.504" r="0.474" gradientTransform="matrix(-0.716, 0.707, -0.787, -0.777, 2859.345, -1343.249)" xlink:href="#a"/><radialGradient id="k" cx="0.495" cy="0.504" r="0.474" gradientTransform="matrix(-0.707, 0.707, -0.777, -0.777, 2769.317, -1294.663)" xlink:href="#a"/><radialGradient id="l" cx="0.502" cy="0.495" r="0.478" gradientTransform="translate(1852.898 -889.847) rotate(135) scale(1 1.099)" xlink:href="#a"/><radialGradient id="m" cx="0.499" cy="0.505" r="0.477" gradientTransform="matrix(-0.705, 0.707, -0.776, -0.777, 961.291, -452.463)" xlink:href="#a"/><radialGradient id="n" cx="0.5" cy="0.503" r="0.476" gradientTransform="matrix(-0.707, 0.707, -0.778, -0.777, 1665.393, -791.323)" xlink:href="#a"/><radialGradient id="o" cx="0.499" cy="0.505" r="0.48" gradientTransform="matrix(-0.703, 0.707, -0.773, -0.777, 1168.237, -576.507)" xlink:href="#a"/><radialGradient id="p" cx="0.5" cy="0.508" r="0.475" gradientTransform="matrix(-0.707, 0.707, -0.777, -0.777, 2790.501, -1349.363)" xlink:href="#a"/><radialGradient id="q" cx="0.497" cy="0.495" r="0.474" gradientTransform="matrix(-0.707, 0.707, -0.777, -0.777, 2801.413, -1334.4)" xlink:href="#a"/><radialGradient id="r" cx="0.491" cy="0.514" r="0.475" gradientTransform="matrix(-0.707, 0.707, -0.777, -0.777, 2783.927, -1327.978)" xlink:href="#a"/><radialGradient id="s" cx="0.505" cy="0.492" r="0.475" gradientTransform="matrix(-0.707, 0.707, -0.777, -0.777, 2782.04, -1345.337)" xlink:href="#a"/><linearGradient id="t" x1="166.745" y1="-276.695" x2="167.763" y2="-276.695" gradientUnits="objectBoundingBox"><stop offset="0" stop-color="#e7b663"/><stop offset="1" stop-color="#fbb040"/></linearGradient><linearGradient id="u" x1="298.016" y1="-304.675" x2="298.924" y2="-304.675" gradientUnits="objectBoundingBox"><stop offset="0" stop-color="#f7941d"/><stop offset="1" stop-color="#ffd380"/></linearGradient><linearGradient id="v" x1="299.336" y1="-383.817" x2="300.336" y2="-383.817" xlink:href="#t"/><linearGradient id="w" x1="617.31" y1="-383.817" x2="618.339" y2="-383.817" xlink:href="#u"/><radialGradient id="x" cx="0.495" cy="0.499" r="0.072" gradientTransform="translate(27515.959 -514.085) rotate(180) scale(6.933 6.907)" gradientUnits="objectBoundingBox"><stop offset="0.15" stop-color="#fff"/><stop offset="0.282" stop-color="#c2c2c2"/><stop offset="0.425" stop-color="#888"/><stop offset="0.564" stop-color="#575757"/><stop offset="0.694" stop-color="#313131"/><stop offset="0.813" stop-color="#161616"/><stop offset="0.919" stop-color="#060606"/><stop offset="1"/></radialGradient><radialGradient id="y" cx="0.499" cy="0.488" r="0.5" gradientTransform="translate(1206.978 -185.03) rotate(90)" xlink:href="#x"/><linearGradient id="z" x1="185.025" y1="-338.363" x2="186.031" y2="-338.363" xlink:href="#t"/><linearGradient id="aa" x1="333.951" y1="-375.443" x2="334.856" y2="-375.443" xlink:href="#u"/><radialGradient id="ab" cx="0.503" cy="0.5" r="0.459" gradientTransform="translate(2076.579 -386.237) rotate(180) scale(1.085 1.099)" xlink:href="#a"/><radialGradient id="ac" cx="0.499" cy="0.496" r="0.455" gradientTransform="translate(2143.61 -401.793) rotate(180) scale(1.106 1.099)" xlink:href="#a"/><radialGradient id="ad" cx="0.499" cy="0.498" r="0.455" gradientTransform="translate(1301.199 -257.254) rotate(180) scale(1.091 1.099)" xlink:href="#a"/><radialGradient id="ae" cx="0.51" cy="0.5" r="0.461" gradientTransform="translate(3455.854 -684.42) rotate(180) scale(1.071 1.099)" xlink:href="#a"/><radialGradient id="af" cx="0.508" cy="0.499" r="0.461" gradientTransform="translate(3553.363 -704.991) rotate(180) scale(1.071 1.099)" xlink:href="#a"/><radialGradient id="ag" cx="0.504" cy="0.507" r="0.461" gradientTransform="translate(3475.436 -677.366) rotate(180) scale(1.071 1.099)" xlink:href="#a"/><radialGradient id="ah" cx="0.505" cy="0.499" r="0.459" gradientTransform="translate(2088.363 -406.323) rotate(180) scale(1.085 1.099)" xlink:href="#a"/><radialGradient id="ai" cx="0.499" cy="0.501" r="0.455" gradientTransform="translate(1203.371 -218.38) rotate(180) scale(1.099 1.099)" xlink:href="#a"/><radialGradient id="aj" cx="0.503" cy="0.497" r="0.459" gradientTransform="translate(2078.163 -393.064) rotate(180) scale(1.085 1.099)" xlink:href="#a"/><radialGradient id="ak" cx="0.515" cy="0.502" r="0.461" gradientTransform="translate(3505.559 -674.9) rotate(180) scale(1.072 1.099)" xlink:href="#a"/><radialGradient id="al" cx="0.504" cy="0.505" r="0.461" gradientTransform="translate(3449.442 -671.761) rotate(180) scale(1.072 1.099)" xlink:href="#a"/><radialGradient id="am" cx="0.503" cy="0.497" r="0.455" gradientTransform="translate(2358.327 -453.473) rotate(180) scale(1.095 1.099)" xlink:href="#a"/><radialGradient id="an" cx="0.498" cy="0.498" r="0.455" gradientTransform="translate(1220.265 -225.238) rotate(180) scale(1.099 1.099)" xlink:href="#a"/><radialGradient id="ao" cx="0.504" cy="0.501" r="0.459" gradientTransform="translate(2108.173 -400.029) rotate(180) scale(1.085 1.099)" xlink:href="#a"/><radialGradient id="ap" cx="0.5" cy="0.498" r="0.455" gradientTransform="translate(1237.557 -244.865) rotate(180) scale(1.099 1.099)" xlink:href="#a"/><radialGradient id="aq" cx="0.499" cy="0.5" r="0.461" gradientTransform="translate(3515.723 -699.326) rotate(180) scale(1.071 1.099)" xlink:href="#a"/><radialGradient id="ar" cx="0.504" cy="0.495" r="0.461" gradientTransform="translate(3500.024 -683.01) rotate(180) scale(1.071 1.099)" xlink:href="#a"/><radialGradient id="as" cx="0.505" cy="0.492" r="0.461" gradientTransform="translate(3490.781 -687.412) rotate(180) scale(1.071 1.099)" xlink:href="#a"/><radialGradient id="at" cx="0.505" cy="0.507" r="0.461" gradientTransform="translate(3504.604 -702.839) rotate(180) scale(1.071 1.099)" xlink:href="#a"/><linearGradient id="au" x1="22.261" y1="-211.155" x2="23.311" y2="-211.155" xlink:href="#t"/><linearGradient id="av" x1="22.786" y1="-422.31" x2="23.311" y2="-422.31" xlink:href="#u"/><linearGradient id="aw" x1="106.429" y1="-357.835" x2="107.444" y2="-357.835" xlink:href="#t"/><linearGradient id="ax" x1="120.961" y1="-617.265" x2="121.536" y2="-617.265" xlink:href="#u"/><radialGradient id="ay" cx="0.501" cy="0.501" r="0.101" gradientTransform="matrix(-0.707, -0.707, 4.885, -4.883, 833, -771.364)" xlink:href="#x"/><radialGradient id="az" cx="0.501" cy="0.501" r="0.101" gradientTransform="matrix(-0.707, 0.707, -4.881, -4.883, 2329.701, -859.051)" xlink:href="#x"/><linearGradient id="ba" x1="23.531" y1="-237.354" x2="24.581" y2="-237.354" xlink:href="#t"/><linearGradient id="bb" x1="24.056" y1="-469.96" x2="24.581" y2="-469.96" xlink:href="#u"/><radialGradient id="bc" cx="-2.236" cy="-3.263" r="24.541" gradientTransform="matrix(0.147, -0.028, 0.004, 1, -1.143, -0.041)" gradientUnits="objectBoundingBox"><stop offset="0" stop-color="#f2964f"/><stop offset="0.029" stop-color="#e6904e"/><stop offset="0.17" stop-color="#b0744b"/><stop offset="0.312" stop-color="#825c49"/><stop offset="0.454" stop-color="#5c4847"/><stop offset="0.593" stop-color="#3f3945"/><stop offset="0.731" stop-color="#2a2e44"/><stop offset="0.866" stop-color="#1d2743"/><stop offset="0.995" stop-color="#192543"/></radialGradient><radialGradient id="bd" cx="-1.364" cy="-5.317" r="32.73" gradientTransform="matrix(0.107, -0.028, 0.003, 1, -0.504, -0.02)" xlink:href="#bc"/><linearGradient id="be" x1="15.308" y1="-53.62" x2="17.455" y2="-50.536" gradientUnits="objectBoundingBox"><stop offset="0" stop-color="#09122c"/><stop offset="0.078" stop-color="#2c334a" stop-opacity="0.922"/><stop offset="0.215" stop-color="#636979" stop-opacity="0.784"/><stop offset="0.354" stop-color="#9397a2" stop-opacity="0.647"/><stop offset="0.491" stop-color="#babcc4" stop-opacity="0.51"/><stop offset="0.625" stop-color="#d8d9de" stop-opacity="0.376"/><stop offset="0.756" stop-color="#eeeef0" stop-opacity="0.243"/><stop offset="0.883" stop-color="#fbfbfb" stop-opacity="0.118"/><stop offset="1" stop-color="#fff" stop-opacity="0"/></linearGradient><linearGradient id="bf" x1="-1.465" y1="0.835" x2="3.396" y2="-0.02" xlink:href="#be"/><linearGradient id="bg" x1="8.786" y1="-45.483" x2="11.369" y2="-39.879" xlink:href="#be"/><linearGradient id="bh" x1="4.284" y1="-14.372" x2="8.031" y2="-12.857" xlink:href="#be"/></defs><g transform="translate(-117.539 -176.181)"><g transform="translate(117.539 176.181)" opacity="0.35"><path d="M582.543,445.287c8.546,14.718,6.884,33.116,3.323,49.734-2.018,9.377-4.629,18.991-10.445,26.588-16.855,22.2-50.446,18.991-77.746,13.65l-268.134,5.816c-36.44-1.9-69.912-25.282-89.022-56.381a140.152,140.152,0,0,1-10.089-19.7c-11.157-26.707-14.481-56.737-12.226-85.7,1.662-21.128,6.41-42.612,18.517-60.06,16.143-23.264,43.205-36.321,69.912-45.579s54.838-15.668,79.17-30.149c9.852-5.935,18.991-12.938,28.487-19.466,6.528-4.392,13.294-8.546,20.178-12.463A282.422,282.422,0,0,1,467.883,176.2c8.783-.119,17.567.237,26.35.95,19.466,1.662,41.9,7.834,49.14,25.994.119.119.119.356.237.475,4.273,11.514.95,24.689-4.748,35.609-5.816,11.157-13.769,21.009-19.229,32.285s-8.071,24.926-2.611,36.2,21.484,17.448,31.336,9.733a18.086,18.086,0,0,0,4.036-4.51,19.186,19.186,0,0,0,2.255-4.392c2.255-5.223,3.2-11.157,4.748-16.617A66.053,66.053,0,0,1,584.68,256.2a2.593,2.593,0,0,1,.594-.356c5.579-3.917,12.463-6.884,18.873-4.867a14.618,14.618,0,0,1,6.766,4.392c4.154,4.51,6.172,11.276,6.528,17.567,2.136,37.033-30.861,64.927-53.176,94.6-7.953,10.564-15.074,23.383-12.344,36.321C555.243,420.836,573.76,430.213,582.543,445.287Z" transform="translate(-117.539 -176.181)" fill="#081839"/></g><g transform="translate(127.387 176.3)" opacity="0.35"><path d="M580.992,445.268c8.546,14.718,6.884,33.116,3.323,49.734-2.018,9.377-4.629,18.991-10.445,26.588-16.855,22.2-50.446,18.991-77.746,13.65L227.99,541.056c-36.44-1.9-69.912-25.282-89.022-56.381a140.153,140.153,0,0,1-10.089-19.7,225.012,225.012,0,0,1-2.967-32.048c-.593-23.027,2.137-46.885,13.294-67.063,14.837-26.944,42.612-44.155,70.505-57.093s57.568-23.146,82.256-41.425c10.089-7.478,19.11-16.143,28.724-24.214,6.647-5.579,13.413-10.8,20.416-15.787A306.662,306.662,0,0,1,466.332,176.3c8.783-.119,17.567.237,26.35.95,19.466,1.662,41.9,7.834,49.14,25.994.119.119.119.356.237.475,4.273,11.514.95,24.689-4.748,35.609-5.816,11.157-13.769,21.009-19.229,32.285s-8.071,24.926-2.611,36.2,21.484,17.448,31.336,9.733a18.086,18.086,0,0,0,4.036-4.51c1.543,2.018,2.255.119,2.255-4.392,2.255-5.223,3.2-11.157,4.748-16.617A66.053,66.053,0,0,1,583.129,256.3a2.594,2.594,0,0,1,.594-.356c5.579-3.917,12.463-6.884,18.873-4.867a14.619,14.619,0,0,1,6.766,4.392c4.154,4.51,6.172,11.276,6.528,17.567,2.136,37.033-30.861,64.927-53.176,94.6-7.953,10.564-15.074,23.383-12.344,36.321C553.692,420.817,572.209,430.194,580.992,445.268Z" transform="translate(-125.836 -176.281)" fill="#081839"/></g><path d="M554.659,493.257l1.78-.712a8.291,8.291,0,0,0,3.442-2.255h0l-.593-.119c-2.849-.475-4.154-1.068-1.662-.712.95.119,1.78.237,2.73.356.119-.119.119-.237.237-.237,0-.119.119-.237.237-.475-2.967-.475-6.053-.95-9.14-1.424-.95-.475-1.78-.831-2.73-1.306,1.78.119,3.561.356,5.341.475,2.255.237.119-.475-2.611-.831-1.424-.237-2.849-.356-4.392-.593a34.385,34.385,0,0,1-3.442-2.255c5.341.475,10.327.95,13.887,1.187,1.9.119.831-.237-1.662-.712-4.392-.712-9.852-1.662-14.481-2.374a13.553,13.553,0,0,1-1.306-1.306h3.917c.95,0-.237-.356-2.137-.712a26.486,26.486,0,0,1-2.73-.475c-.237-.356-.594-.712-.831-1.068,1.78.119,3.561.356,4.985.475,1.78.119.356-.356-2.018-.712-1.187-.119-2.374-.356-3.442-.475-.237-.475-.475-.831-.712-1.306,2.374,0,5.1.119,7.359.237,1.187,0,.119-.356-1.9-.594-1.78-.237-3.917-.593-6.054-.95a5.8,5.8,0,0,0-.356-.831c14.006,1.543,28.012,2.849,25.52,2.493-1.9-.237-16.024-2.255-25.994-3.68-.119-.237-.119-.475-.237-.712,4.036.356,8.783.712,12.819,1.068,2.018.119.356-.356-2.137-.712-3.8-.475-7.953-1.068-11.039-1.543-.119-.237-.119-.475-.237-.594,8.665.475,24.1,1.424,17.211.475-2.967-.356-10.327-1.187-17.567-2.137-.119-.356-.119-.712-.237-1.068,15.668,1.306,23.027,1.9,18.042,1.424-2.611-.237-10.8-1.306-18.279-2.374,0-.237-.119-.475-.119-.712,5.7.475,11.276.712,14.481.831,1.187,0,.119-.237-1.78-.593l-12.344-1.9a5.138,5.138,0,0,1-.593-.119c0-.237-.119-.356-.119-.475,16.024,1.306,19.941,1.424,10.445.356-3.561-.356-7.359-.831-10.564-1.306,0-.237-.119-.356-.119-.594,10.8.95,26.707,2.255,22.552,1.662-2.73-.356-13.531-1.662-22.79-2.73-.119-.237-.119-.475-.237-.712,8.071.594,13.769.831,7.953,0-1.78-.237-4.867-.593-8.309-.95a8.627,8.627,0,0,0-2.374-3.086l10.089.119c1.068,0-1.068-.475-2.967-.712-2.849-.237-6.291-.594-9.5-.95-2.611-1.306-6.528-2.255-12.463-2.849-23.858-2.493,1.78-3.442-59.348-.831-63.028,2.611-218.757-.237-245.938,9.258-30.5,10.683-47,27.656-47,27.656,4.392,6.766-19.585,5.7,16.38,8.427,36.8,2.73,318.105-6.172,369.026-2.493A22.783,22.783,0,0,0,554.659,493.257Z" transform="translate(7.825 51.023)" fill="#0c1a3c"/><path d="M554.659,493.238a9,9,0,0,1,1.9-.712,11.255,11.255,0,0,0,3.2-2.018l.119-.119-.594-.119c-2.849-.475-4.154-1.068-1.662-.712.95.119,1.78.237,2.73.356.119-.119.119-.237.237-.237,0-.119.119-.237.237-.475-2.967-.475-6.054-.95-9.14-1.424-.95-.475-1.78-.831-2.73-1.306,1.78.119,3.561.356,5.341.475,2.255.237.119-.475-2.611-.831-1.424-.237-2.849-.356-4.392-.594a34.392,34.392,0,0,1-3.442-2.255c5.341.475,10.327.95,13.887,1.187,1.9.119.831-.237-1.662-.712-4.392-.712-9.852-1.662-14.481-2.374a13.546,13.546,0,0,1-1.306-1.306h3.917c.95,0-.237-.356-2.136-.712a26.486,26.486,0,0,1-2.73-.475c-.237-.356-.594-.712-.831-1.068,1.78.119,3.561.356,4.985.475,1.78.119.356-.356-2.018-.712-1.187-.119-2.374-.356-3.442-.475-.237-.475-.475-.831-.712-1.306,2.374,0,5.1.119,7.359.237,1.187,0,.119-.356-1.9-.594-1.78-.237-3.917-.593-6.053-.95a5.793,5.793,0,0,0-.356-.831c14.006,1.543,28.012,2.849,25.52,2.493-1.9-.237-16.024-2.255-25.994-3.68-.119-.237-.119-.475-.237-.712,4.036.356,8.784.712,12.819,1.068,2.018.119.356-.356-2.136-.712-3.8-.475-7.953-1.068-11.039-1.543-.119-.237-.119-.475-.237-.594,8.665.475,24.1,1.424,17.211.475-2.967-.356-10.327-1.187-17.567-2.136-.119-.356-.119-.712-.237-1.068,15.668,1.306,23.027,1.9,18.042,1.424-2.611-.237-10.8-1.306-18.279-2.374,0-.237-.119-.475-.119-.712,5.7.475,11.276.712,14.481.831,1.187,0,.119-.237-1.78-.594l-12.344-1.9a5.14,5.14,0,0,1-.594-.119c0-.237-.119-.356-.119-.475,16.024,1.306,19.941,1.424,10.445.356-3.561-.356-7.359-.831-10.564-1.306,0-.237-.119-.356-.119-.594,10.8.95,26.707,2.255,22.552,1.662-2.73-.356-13.531-1.662-22.79-2.73-.119-.237-.119-.475-.237-.712,8.071.593,13.769.831,7.953,0-1.78-.237-4.867-.594-8.309-.95a8.626,8.626,0,0,0-2.374-3.086l10.089.119c1.068,0-1.068-.475-2.967-.712-2.849-.237-6.291-.594-9.5-.95-2.611-1.306-6.528-2.255-12.463-2.849-23.858-2.493,1.78-3.442-59.348-.831-63.028,2.611-218.757-.237-245.938,9.258-30.5,10.683-47,27.656-47,27.656,4.392,6.766-19.585,5.7,16.38,8.427,36.8,2.73,318.105-6.172,369.026-2.493A27.721,27.721,0,0,0,554.659,493.238Z" transform="translate(7.825 51.041)" fill="#333a4a" opacity="0.1"/><g transform="translate(366.614 415.606)"><path d="M327.4,451.255s22.2-74.185,94.719-73.354-5.1,74.185-71.692,87C350.43,464.905,326.572,475.113,327.4,451.255Z" transform="translate(-327.382 -377.894)" fill="#d6a206" opacity="0.24"/><g transform="translate(2.989 9.384)"><path d="M413.7,399.094c-1.78.119-3.561.237-5.341.475a29.825,29.825,0,0,0-3.2.475c4.154-2.73,8.309-5.223,12.582-7.6a85.546,85.546,0,0,1,14.718-6.528V385.8c-1.306.356-2.611.712-3.917,1.187l-3.8,1.424-3.68,1.543c-1.187.593-2.493,1.187-3.68,1.78-4.867,2.374-9.5,5.223-14.125,8.071a4.164,4.164,0,0,1-.95.593,45.658,45.658,0,0,0,.119-5.7,13.234,13.234,0,0,0-.593-3.68,4.657,4.657,0,0,0-.95-1.662,3.856,3.856,0,0,0-1.543-1.187l-.119.119a6.421,6.421,0,0,1,1.306,3.086c.237,1.068.593,2.255.831,3.442s.356,2.374.475,3.561a14.362,14.362,0,0,1,.119,2.255A257.7,257.7,0,0,0,379.4,417.373a22.91,22.91,0,0,0,0-4.036,32.765,32.765,0,0,0-.712-4.748,15.168,15.168,0,0,0-1.9-4.51,6.9,6.9,0,0,0-4.036-2.73v.119a13.468,13.468,0,0,1,2.967,3.442,25.622,25.622,0,0,1,2.018,4.036,27.764,27.764,0,0,1,1.068,4.51c.237,1.424.356,2.73.475,4.154-.594.475-1.306,1.068-1.9,1.543-6.528,5.341-12.819,10.8-18.991,16.5-.237-1.068-.475-2.255-.712-3.323l-1.068-3.561a17.934,17.934,0,0,0-1.543-3.442,13.43,13.43,0,0,0-1.187-1.543,3.146,3.146,0,0,0-.712-.593c-.237-.119-.594-.356-.831-.475l-.119.119c.712,1.068,1.187,2.137,1.78,3.2.475,1.068,1.187,2.137,1.662,3.2s1.068,2.255,1.424,3.323a27.386,27.386,0,0,1,1.187,3.323c-1.78,1.543-3.442,3.2-5.223,4.748-7.953,7.359-15.668,14.956-23.146,22.671l.119.119c7.6-7.6,15.43-15.074,23.5-22.315,3.917-3.561,7.834-7,11.87-10.445,1.78.356,3.68.712,5.46,1.068a49.955,49.955,0,0,1,5.7,1.424c1.9.475,3.68,1.187,5.579,1.78s3.68,1.187,5.579,1.78l.119-.119a22.788,22.788,0,0,0-5.223-2.967,46.485,46.485,0,0,0-5.816-1.543c-1.9-.356-3.917-.712-5.816-1.068-1.78-.237-3.561-.475-5.46-.593,4.154-3.561,8.309-7,12.582-10.445,2.611-2.137,5.223-4.154,7.953-6.172a44.224,44.224,0,0,1,5.579.475,64.135,64.135,0,0,1,6.884,1.306c1.187.356,2.255.593,3.323.95s2.255.712,3.323.95c1.187.237,2.255.593,3.442.95s2.255.593,3.442.831v-.119a40.656,40.656,0,0,0-6.528-2.967,48.359,48.359,0,0,0-6.884-1.662c-2.374-.356-4.629-.712-7-.95-1.78-.119-3.561-.119-5.223-.119,5.816-4.392,11.751-8.665,17.8-12.7.237-.119.356-.237.594-.356,1.306-.119,2.611-.237,3.917-.237a40.1,40.1,0,0,1,5.341,0c1.78.119,3.561.356,5.223.356l5.341.356v-.119a16.511,16.511,0,0,0-5.223-1.543A46.565,46.565,0,0,0,413.7,399.094Z" transform="translate(-329.9 -385.8)" fill="#0c1a3c"/><path d="M352.071,436.7c-1.424,0-2.73.119-4.036.237a23.985,23.985,0,0,0-4.036.712v.119c1.306-.119,2.73-.119,4.036-.119s2.73,0,4.036.119,2.611.356,3.917.593a22.658,22.658,0,0,1,3.917.712l.119-.119a7.328,7.328,0,0,0-3.68-1.9A17.817,17.817,0,0,0,352.071,436.7Z" transform="translate(-327.264 -376.284)" fill="#0c1a3c"/></g></g><g transform="translate(308.316 389.278)"><path d="M285.191,431.188s-20.653-39.288,9.377-68.013,27.656,32.523,5.579,64.452C300.146,427.509,294.449,441.277,285.191,431.188Z" transform="translate(-278.266 -355.713)" fill="#d6a206" opacity="0.24"/><g transform="translate(6.212 6.869)"><path d="M299.405,374.557a19.368,19.368,0,0,0-2.018,2.374,12.576,12.576,0,0,1-1.187,1.424q.89-4.095,2.137-8.19a59.828,59.828,0,0,1,3.442-8.665h-.119a17.862,17.862,0,0,1-1.187,2.018l-.95,2.137-.831,2.137c-.237.712-.593,1.424-.831,2.137a77.968,77.968,0,0,0-2.493,9.021,5.141,5.141,0,0,1-.119.593A21.326,21.326,0,0,0,293,377.168a8.964,8.964,0,0,0-1.662-1.306l-1.068-.356a2.947,2.947,0,0,0-1.068.119v.119a4.683,4.683,0,0,1,1.78.712c.593.356,1.187.712,1.662,1.068a15.959,15.959,0,0,1,1.662,1.306c.356.237.594.593.95.831a142.987,142.987,0,0,0-2.493,15.905A11,11,0,0,0,291.1,393.9a15.793,15.793,0,0,0-2.255-1.662,7.155,7.155,0,0,0-2.611-1.068,4.344,4.344,0,0,0-2.73.475v.119a6.337,6.337,0,0,1,2.611.237,20.45,20.45,0,0,1,2.493.831,9.028,9.028,0,0,1,2.255,1.424,21.674,21.674,0,0,1,1.9,1.543c0,.475-.119.95-.119,1.424-.475,4.748-.95,9.614-1.187,14.362-.475-.356-1.068-.712-1.662-1.068s-1.187-.712-1.9-1.068a6.047,6.047,0,0,0-2.018-.831,3.286,3.286,0,0,0-1.068-.119h-.593c-.237,0-.356.119-.593.119v.119a12.968,12.968,0,0,1,2.018.593c.593.237,1.306.356,2.018.593a9.187,9.187,0,0,1,1.9.831c.594.237,1.187.593,1.78.831-.119,1.306-.119,2.73-.237,4.036-.237,6.172-.475,12.344-.356,18.635h.119c0-6.172.356-12.344.712-18.517.237-2.967.356-6.053.712-9.021.831-.593,1.78-1.187,2.73-1.78l2.849-1.78c.95-.593,2.018-.95,2.967-1.543.95-.475,2.018-1.068,2.967-1.543v-.119a10.69,10.69,0,0,0-3.323.95,23.9,23.9,0,0,0-2.967,1.662c-.95.593-1.9,1.306-2.849,1.9-.831.593-1.662,1.306-2.493,1.9.237-3.086.594-6.172.95-9.377.237-1.9.475-3.8.831-5.7.831-.712,1.662-1.424,2.493-2.018a32.646,32.646,0,0,1,3.323-2.255,12.971,12.971,0,0,1,1.78-.95c.593-.356,1.187-.593,1.78-.95s1.187-.593,1.78-.95a14.129,14.129,0,0,0,1.78-1.068v-.119a20.829,20.829,0,0,0-3.8,1.424,28.265,28.265,0,0,0-3.561,2.137,21.161,21.161,0,0,0-3.2,2.493c-.712.712-1.543,1.306-2.255,2.137.593-4.154,1.306-8.309,2.255-12.344a.436.436,0,0,1,.119-.356,19.706,19.706,0,0,1,1.543-1.662l2.137-2.137c.712-.712,1.543-1.306,2.255-2.018l2.374-2.018v-.119a11.959,11.959,0,0,0-2.73,1.424C300.83,373.013,300.117,373.844,299.405,374.557Z" transform="translate(-283.5 -361.5)" fill="#0c1a3c"/><path d="M292.967,409.055a20.635,20.635,0,0,0-1.543,1.78c-.475.593-.95,1.187-1.424,1.9h.119a11,11,0,0,1,1.662-1.662,19.707,19.707,0,0,1,1.662-1.543,16.991,16.991,0,0,1,1.78-1.306c.593-.475,1.187-.831,1.9-1.306V406.8a4.606,4.606,0,0,0-2.255.712A4.951,4.951,0,0,0,292.967,409.055Z" transform="translate(-282.285 -353.031)" fill="#0c1a3c"/></g></g><g transform="translate(142.942 422.253)"><path d="M262.811,456.855s-22.2-74.185-94.719-73.354,5.1,74.185,71.692,87C239.784,470.505,263.642,480.713,262.811,456.855Z" transform="translate(-138.941 -383.494)" fill="#d6a206" opacity="0.24"/><g transform="translate(18.35 9.384)"><path d="M173.154,404.694c1.78.119,3.561.237,5.341.475a29.83,29.83,0,0,1,3.2.475c-4.154-2.73-8.309-5.223-12.582-7.6a85.546,85.546,0,0,0-14.718-6.528V391.4c1.306.356,2.611.712,3.917,1.187l3.8,1.424,3.68,1.543c1.187.594,2.493,1.187,3.68,1.78,4.867,2.374,9.5,5.223,14.125,8.071a4.164,4.164,0,0,0,.95.594,45.655,45.655,0,0,1-.119-5.7,13.237,13.237,0,0,1,.593-3.68,4.657,4.657,0,0,1,.95-1.662,3.857,3.857,0,0,1,1.543-1.187l.119.119a6.421,6.421,0,0,0-1.306,3.086c-.237,1.068-.593,2.255-.831,3.442s-.356,2.374-.475,3.561a14.362,14.362,0,0,0-.119,2.255,257.725,257.725,0,0,1,22.552,16.736,22.91,22.91,0,0,1,0-4.036,32.771,32.771,0,0,1,.712-4.748,15.17,15.17,0,0,1,1.9-4.51,6.9,6.9,0,0,1,4.036-2.73v.119a13.47,13.47,0,0,0-2.967,3.442,25.618,25.618,0,0,0-2.018,4.036,27.768,27.768,0,0,0-1.068,4.51c-.237,1.424-.356,2.73-.475,4.154.593.475,1.306,1.068,1.9,1.543,6.528,5.341,12.819,10.8,18.991,16.5.237-1.068.475-2.255.712-3.323l1.068-3.561a17.938,17.938,0,0,1,1.543-3.442,13.441,13.441,0,0,1,1.187-1.543,3.147,3.147,0,0,1,.712-.593c.237-.119.593-.356.831-.475l.119.119c-.712,1.068-1.187,2.136-1.78,3.2-.475,1.068-1.187,2.137-1.662,3.2s-1.068,2.255-1.424,3.323a27.388,27.388,0,0,0-1.187,3.323c1.78,1.543,3.442,3.2,5.223,4.748,7.953,7.359,15.668,14.956,23.146,22.671l-.119.119c-7.6-7.6-15.43-15.074-23.5-22.315-3.917-3.561-7.834-7-11.87-10.445-1.78.356-3.68.712-5.46,1.068a49.952,49.952,0,0,0-5.7,1.424c-1.9.475-3.68,1.187-5.579,1.78s-3.68,1.187-5.579,1.78l-.119-.119a22.788,22.788,0,0,1,5.223-2.967,46.491,46.491,0,0,1,5.816-1.543c1.9-.356,3.917-.712,5.816-1.068,1.78-.237,3.561-.475,5.46-.593-4.154-3.561-8.309-7-12.582-10.445-2.611-2.137-5.223-4.154-7.953-6.172a44.224,44.224,0,0,0-5.579.475,64.144,64.144,0,0,0-6.884,1.306c-1.187.356-2.255.594-3.323.95s-2.255.712-3.324.95c-1.187.237-2.255.594-3.442.95s-2.255.593-3.442.831v-.119a40.658,40.658,0,0,1,6.528-2.967,48.361,48.361,0,0,1,6.884-1.662c2.374-.356,4.629-.712,7-.95,1.78-.119,3.561-.119,5.223-.119-5.816-4.392-11.751-8.665-17.8-12.7-.237-.119-.356-.237-.593-.356-1.306-.119-2.611-.237-3.917-.237a40.1,40.1,0,0,0-5.341,0c-1.78.119-3.561.356-5.223.356l-5.341.356v-.119a16.511,16.511,0,0,1,5.223-1.543A46.569,46.569,0,0,1,173.154,404.694Z" transform="translate(-154.4 -391.4)" fill="#0c1a3c"/><path d="M221.153,442.3c1.424,0,2.73.119,4.036.237a23.99,23.99,0,0,1,4.036.712v.119c-1.306-.119-2.73-.119-4.036-.119s-2.73,0-4.036.119-2.611.356-3.917.594a22.659,22.659,0,0,0-3.917.712l-.119-.119a7.328,7.328,0,0,1,3.68-1.9A18.307,18.307,0,0,1,221.153,442.3Z" transform="translate(-143.407 -381.884)" fill="#0c1a3c"/></g></g><g transform="translate(219.066 330.146)"><path d="M259.011,439.078s36.44-69.318-16.5-120c-53.057-50.683-48.784,57.211-9.733,113.592C232.779,432.668,242.749,457,259.011,439.078Z" transform="translate(-203.074 -305.895)" fill="#d6a206" opacity="0.24"/><g transform="translate(16.054 12.351)"><path d="M229.657,339.208c1.187,1.306,2.374,2.73,3.561,4.154.712.831,1.306,1.78,2.018,2.611-1.068-4.867-2.255-9.614-3.68-14.362a87.644,87.644,0,0,0-5.935-15.193l.119-.119c.712,1.187,1.306,2.374,2.018,3.561l1.78,3.68,1.543,3.8,1.424,3.917c1.78,5.223,3.2,10.445,4.51,15.787.119.356.119.712.237,1.187a42.8,42.8,0,0,1,3.917-4.154,17.8,17.8,0,0,1,2.967-2.255,8.894,8.894,0,0,1,1.9-.594,2.639,2.639,0,0,1,1.9.356v.119a7.164,7.164,0,0,0-3.086,1.306c-.95.593-2.018,1.187-2.967,1.9s-1.9,1.424-2.849,2.255a10.25,10.25,0,0,0-1.662,1.543,277.646,277.646,0,0,1,4.51,28.131c.95-1.068,1.9-2.018,2.849-2.967a23.638,23.638,0,0,1,3.917-2.849,12.612,12.612,0,0,1,4.51-1.9,7.638,7.638,0,0,1,4.867.831v.119a13.946,13.946,0,0,0-4.51.356,18.406,18.406,0,0,0-4.273,1.543,28.419,28.419,0,0,0-4.036,2.493,35.76,35.76,0,0,0-3.323,2.611,17.711,17.711,0,0,1,.237,2.493c.95,8.427,1.543,16.855,2.137,25.4.95-.712,1.9-1.306,2.849-1.9,1.068-.594,2.255-1.187,3.323-1.78a13.155,13.155,0,0,1,3.561-1.424,10.387,10.387,0,0,1,1.9-.237,2.314,2.314,0,0,1,.95.119c.356.119.593.119.95.237v.119a17.668,17.668,0,0,0-3.561,1.068l-3.561,1.068c-1.187.475-2.255.95-3.442,1.424-1.068.475-2.137.95-3.2,1.543l.356,7.122q.712,16.38.712,32.76h-.119c-.119-10.92-.593-21.84-1.187-32.76-.356-5.341-.712-10.564-1.187-15.905-1.543-1.068-3.086-2.137-4.748-3.086-1.662-1.068-3.442-2.137-5.1-3.086-1.78-.95-3.561-1.78-5.341-2.73s-3.442-1.78-5.341-2.73v-.119a23.317,23.317,0,0,1,5.816,1.543,37.216,37.216,0,0,1,5.223,2.967c1.662,1.068,3.323,2.255,4.985,3.442,1.424,1.068,2.967,2.255,4.273,3.442-.475-5.46-1.068-10.92-1.662-16.5q-.534-4.985-1.424-9.97a41.162,41.162,0,0,0-4.392-3.561,64.005,64.005,0,0,0-5.935-3.917c-1.068-.593-2.018-1.187-3.086-1.662-1.068-.593-2.137-1.068-3.086-1.662-1.068-.593-2.018-1.068-3.086-1.78-1.068-.593-2.137-1.187-3.086-1.78v-.119a32.946,32.946,0,0,1,6.766,2.493,47.008,47.008,0,0,1,6.172,3.68,51.868,51.868,0,0,1,5.7,4.392c1.306,1.187,2.611,2.374,3.917,3.68-1.068-7.359-2.374-14.6-3.917-21.84,0-.237-.119-.475-.119-.712-.831-.95-1.78-2.018-2.611-2.967-1.187-1.306-2.493-2.611-3.8-3.8s-2.73-2.255-4.036-3.442l-4.036-3.442.119-.119a19.262,19.262,0,0,1,4.867,2.611A22.845,22.845,0,0,1,229.657,339.208Z" transform="translate(-216.6 -316.3)" fill="#0c1a3c"/><path d="M236.64,400.117a33.806,33.806,0,0,1,2.73,3.086c.831,1.068,1.662,2.137,2.493,3.323l-.119.119c-.95-1.068-1.9-2.018-2.849-2.967s-2.018-1.9-2.967-2.73c-1.068-.831-2.137-1.543-3.2-2.374a32.644,32.644,0,0,0-3.323-2.255V396.2a9.387,9.387,0,0,1,4.036,1.187A17.028,17.028,0,0,1,236.64,400.117Z" transform="translate(-214.207 -301.362)" fill="#0c1a3c"/></g></g><g transform="translate(173.636 241.645)"><g transform="translate(189.41)"><path d="M361.629,238.1c-2.374-2.374-6.054-2.611-8.19-.356a5.818,5.818,0,0,0,.356,8.19c2.374,2.374,6.054,2.611,8.19.356A5.82,5.82,0,0,0,361.629,238.1Z" transform="translate(-319.226 -230.428)" opacity="0.35" fill="url(#a)"/><path d="M363.448,338.2c-2.374-2.374-6.172-2.611-8.309-.356a5.965,5.965,0,0,0,.356,8.309c2.374,2.374,6.172,2.611,8.309.356A5.854,5.854,0,0,0,363.448,338.2Z" transform="translate(-318.909 -211.713)" fill="url(#b)"/><path d="M386.653,357.1c-3.2-3.2-8.071-3.442-11.039-.475-2.849,2.849-2.611,7.834.475,11.039,3.2,3.2,8.071,3.442,11.039.475S389.858,360.308,386.653,357.1Z" transform="translate(-315.17 -208.299)" fill="url(#c)"/><path d="M423.11,251.881a3.289,3.289,0,1,0,.237,4.867A3.415,3.415,0,0,0,423.11,251.881Z" transform="translate(-306.997 -227.707)" fill="url(#d)"/><path d="M355.11,361.481a3.289,3.289,0,1,0,.237,4.867A3.415,3.415,0,0,0,355.11,361.481Z" transform="translate(-319.71 -207.216)" fill="url(#e)"/><path d="M398.21,262.581a3.289,3.289,0,1,0,.237,4.867A3.651,3.651,0,0,0,398.21,262.581Z" transform="translate(-311.652 -225.706)" fill="url(#f)"/><path d="M408.629,281.4c-2.374-2.374-6.054-2.611-8.19-.356a5.82,5.82,0,0,0,.356,8.19c2.374,2.374,6.054,2.611,8.19.356A5.82,5.82,0,0,0,408.629,281.4Z" transform="translate(-310.439 -222.332)" opacity="0.35" fill="url(#g)"/><path d="M341.259,310.42c-4.154-4.154-10.564-4.392-14.244-.712-3.8,3.8-3.442,10.089.712,14.243s10.564,4.392,14.243.712C345.77,320.866,345.414,314.456,341.259,310.42Z" transform="translate(-324.376 -217.166)" fill="url(#h)"/><path d="M383.929,251.3c-2.374-2.374-6.053-2.611-8.19-.356a5.82,5.82,0,0,0,.356,8.19c2.374,2.374,6.053,2.611,8.19.356C386.422,257.475,386.3,253.676,383.929,251.3Z" transform="translate(-315.057 -227.96)" fill="url(#i)"/><path d="M356.21,286.481a3.289,3.289,0,1,0,.237,4.867A3.651,3.651,0,0,0,356.21,286.481Z" transform="translate(-319.504 -221.238)" opacity="0.35" fill="url(#j)"/><path d="M418.11,232.481a3.289,3.289,0,1,0,.237,4.867A3.415,3.415,0,0,0,418.11,232.481Z" transform="translate(-307.932 -231.334)" fill="url(#k)"/><path d="M398.87,299.867a4.975,4.975,0,1,0,.356,7.359A5.249,5.249,0,0,0,398.87,299.867Z" transform="translate(-312.075 -218.838)" fill="url(#l)"/><path d="M367.759,270.521c-4.154-4.154-10.564-4.392-14.243-.712-3.8,3.8-3.442,10.089.712,14.243s10.564,4.392,14.244.712S371.914,274.675,367.759,270.521Z" transform="translate(-319.422 -224.625)" fill="url(#m)"/><path d="M359.829,296.1c-2.374-2.374-6.053-2.611-8.19-.356a5.82,5.82,0,0,0,.356,8.19c2.374,2.374,6.053,2.611,8.19.356A5.615,5.615,0,0,0,359.829,296.1Z" transform="translate(-319.563 -219.584)" opacity="0.35" fill="url(#n)"/><path d="M400.973,353.32c-3.323-3.323-8.546-3.561-11.632-.593-3.086,3.086-2.849,8.309.593,11.632,3.323,3.323,8.546,3.561,11.632.593C404.533,361.985,404.3,356.762,400.973,353.32Z" transform="translate(-312.635 -209.026)" fill="url(#o)"/><path d="M383.61,321.481a3.289,3.289,0,1,0,.237,4.867A3.415,3.415,0,0,0,383.61,321.481Z" transform="translate(-314.382 -214.694)" opacity="0.35" fill="url(#p)"/><path d="M365.81,297.181a3.289,3.289,0,1,0,.237,4.867A3.415,3.415,0,0,0,365.81,297.181Z" transform="translate(-317.71 -219.238)" opacity="0.35" fill="url(#q)"/><path d="M394.31,286.681a3.289,3.289,0,1,0,.237,4.867A3.415,3.415,0,0,0,394.31,286.681Z" transform="translate(-312.381 -221.201)" fill="url(#r)"/><path d="M397.31,314.981a3.289,3.289,0,1,0,.237,4.867A3.415,3.415,0,0,0,397.31,314.981Z" transform="translate(-311.82 -215.91)" fill="url(#s)"/><path d="M332.754,313.423l2.374-3.323,1.187,3.917,3.917,1.187-3.323,2.374.119,4.154L333.7,319.24l-3.917,1.424,1.306-3.917-2.493-3.324Z" transform="translate(-323.587 -216.608)" fill="url(#t)"/><path d="M332.754,313.423l2.374-3.323-1.543,5.223-2.137-.237.712,2.018-2.374,3.561,1.306-3.917-2.493-3.324Z" transform="translate(-323.587 -216.608)" fill="url(#u)"/><path d="M393.849,301.211l1.187-2.611,1.306,2.493,2.967.356-2.018,2.137.593,2.849-2.611-1.306-2.611,1.424.475-2.849L391,301.686Z" transform="translate(-311.92 -218.758)" fill="url(#v)"/><path d="M393.849,301.211l1.187-2.611-.356,3.8-1.543.119.831,1.306-1.306,2.73.475-2.849L391,301.686Z" transform="translate(-311.92 -218.758)" fill="url(#w)"/><path d="M361.461,277.744c0-6.766-.831-12.344-1.78-12.344s-1.78,5.46-1.78,12.344c0,6.766.831,12.344,1.78,12.344S361.461,284.51,361.461,277.744Z" transform="translate(-318.109 -224.965)" fill="url(#x)"/><path d="M361.344,274.3c-6.766,0-12.344.831-12.344,1.78s5.46,1.78,12.344,1.78c6.766,0,12.344-.831,12.344-1.78S368.11,274.3,361.344,274.3Z" transform="translate(-319.773 -223.301)" fill="url(#y)"/><path d="M394.742,356.049l1.9-2.849,1.068,3.323,3.2.95-2.73,1.9v3.442l-2.73-2.018-3.2,1.068,1.068-3.2-2.018-2.73Z" transform="translate(-311.864 -208.55)" fill="url(#z)"/><path d="M394.742,356.049l1.9-2.849-1.306,4.392-1.662-.237.593,1.662-2.018,2.849,1.068-3.2-2.018-2.73Z" transform="translate(-311.864 -208.55)" fill="url(#aa)"/></g><g transform="translate(0 9.218)"><path d="M291.557,259.553a5.6,5.6,0,1,0-5.579,6.053A5.84,5.84,0,0,0,291.557,259.553Z" transform="translate(-143.188 -236.408)" opacity="0.35" fill="url(#ab)"/><path d="M194.157,316.572c0-3.442-2.493-6.172-5.579-6.172S183,313.13,183,316.572s2.493,6.172,5.579,6.172S194.157,319.9,194.157,316.572Z" transform="translate(-161.397 -225.77)" fill="url(#ac)"/><ellipse cx="9.14" cy="9.97" rx="9.14" ry="9.97" transform="translate(9.852 123.206)" fill="url(#ad)"/><path d="M297.047,297.861a3.377,3.377,0,0,0-3.323-3.561,3.569,3.569,0,0,0,0,7.122A3.377,3.377,0,0,0,297.047,297.861Z" transform="translate(-141.318 -228.78)" fill="url(#ae)"/><path d="M171.447,327.261a3.377,3.377,0,0,0-3.323-3.561,3.53,3.53,0,0,0-3.323,3.561,3.331,3.331,0,1,0,6.647,0Z" transform="translate(-164.8 -223.283)" fill="url(#af)"/><path d="M271.847,287.761a3.377,3.377,0,0,0-3.323-3.561,3.449,3.449,0,0,0-3.323,3.561,3.331,3.331,0,1,0,6.647,0Z" transform="translate(-146.029 -230.668)" fill="url(#ag)"/><path d="M266.257,308.353a5.6,5.6,0,1,0-5.579,6.053A5.84,5.84,0,0,0,266.257,308.353Z" transform="translate(-147.918 -227.284)" opacity="0.35" fill="url(#ah)"/><path d="M332.629,249.664c0-5.816-4.273-10.564-9.614-10.564s-9.614,4.748-9.614,10.564,4.273,10.564,9.614,10.564S332.629,255.48,332.629,249.664Z" transform="translate(-137.018 -239.1)" fill="url(#ai)"/><path d="M288.157,276.154a5.6,5.6,0,1,0-5.579,6.053A5.84,5.84,0,0,0,288.157,276.154Z" transform="translate(-143.823 -233.304)" fill="url(#aj)"/><path d="M234.947,285.061a3.377,3.377,0,0,0-3.323-3.561,3.53,3.53,0,0,0-3.323,3.561,3.377,3.377,0,0,0,3.323,3.561A3.309,3.309,0,0,0,234.947,285.061Z" transform="translate(-152.928 -231.173)" opacity="0.35" fill="url(#ak)"/><path d="M307.247,280.561A3.377,3.377,0,0,0,303.924,277a3.53,3.53,0,0,0-3.323,3.561,3.331,3.331,0,1,0,6.647,0Z" transform="translate(-139.411 -232.014)" fill="url(#al)"/><path d="M246.27,314.56a5.006,5.006,0,1,0-4.985,5.46A5.285,5.285,0,0,0,246.27,314.56Z" transform="translate(-151.432 -226.013)" fill="url(#am)"/><ellipse cx="9.614" cy="10.564" rx="9.614" ry="10.564" transform="translate(102.672 34.541)" fill="url(#an)"/><path d="M224.457,293.353a5.6,5.6,0,1,0-5.579,6.054C221.965,299.526,224.457,296.8,224.457,293.353Z" transform="translate(-155.732 -230.089)" opacity="0.35" fill="url(#ao)"/><path d="M206.929,361.964c0-5.816-4.273-10.564-9.614-10.564s-9.614,4.748-9.614,10.564,4.273,10.564,9.614,10.564S206.929,367.78,206.929,361.964Z" transform="translate(-160.519 -218.104)" fill="url(#ap)"/><path d="M219.947,319.161a3.377,3.377,0,0,0-3.323-3.561,3.53,3.53,0,0,0-3.323,3.561,3.377,3.377,0,0,0,3.323,3.561A3.451,3.451,0,0,0,219.947,319.161Z" transform="translate(-155.732 -224.798)" opacity="0.35" fill="url(#aq)"/><path d="M240.147,295.861a3.377,3.377,0,0,0-3.323-3.561,3.53,3.53,0,0,0-3.323,3.561,3.377,3.377,0,0,0,3.323,3.561A3.452,3.452,0,0,0,240.147,295.861Z" transform="translate(-151.956 -229.154)" opacity="0.35" fill="url(#ar)"/><path d="M252.047,302.161a3.377,3.377,0,0,0-3.323-3.561,3.53,3.53,0,0,0-3.324,3.561,3.377,3.377,0,0,0,3.324,3.561A3.449,3.449,0,0,0,252.047,302.161Z" transform="translate(-149.731 -227.976)" fill="url(#as)"/><ellipse cx="3.323" cy="3.561" rx="3.323" ry="3.561" transform="translate(74.541 96.737)" fill="url(#at)"/><path d="M323.94,245.967l4.036-.712-1.9,3.68,1.9,3.68-4.036-.712-2.849,2.967-.594-4.036-3.8-1.9,3.8-1.78.594-4.154Z" transform="translate(-136.401 -238.371)" fill="url(#au)"/><path d="M323.94,245.967l4.036-.712-4.867,2.611-1.187-1.662-.95,2.018-4.273.712,3.8-1.78.594-4.154Z" transform="translate(-136.401 -238.371)" fill="url(#av)"/><path d="M241.61,311.862l2.73-.95-.831,2.73,1.78,2.255-2.849.119-1.662,2.374-.95-2.73-2.73-.712,2.255-1.78-.119-2.967Z" transform="translate(-151.283 -225.807)" fill="url(#aw)"/><path d="M241.61,311.862l2.73-.95-2.967,2.374-1.187-.95-.356,1.543-2.73,1.068,2.255-1.78-.119-2.967Z" transform="translate(-151.283 -225.807)" fill="url(#ax)"/><path d="M261.985,279.686c4.748-4.748,8.19-9.258,7.478-9.97s-5.1,2.611-9.97,7.478c-4.748,4.748-8.19,9.258-7.478,9.97S257.237,284.552,261.985,279.686Z" transform="translate(-148.512 -233.394)" fill="url(#ay)"/><path d="M261.986,277.193c-4.748-4.748-9.258-8.19-9.97-7.478s2.611,5.1,7.478,9.97c4.748,4.748,9.258,8.19,9.97,7.478S266.852,281.94,261.986,277.193Z" transform="translate(-148.512 -233.394)" fill="url(#az)"/><path d="M198.722,359.067l4.154-.712-1.9,3.68,1.9,3.561L198.722,365l-2.849,2.849-.593-4.036-3.68-1.78,3.68-1.9.593-4.036Z" transform="translate(-159.789 -217.226)" fill="url(#ba)"/><path d="M198.722,359.067l4.154-.712-4.867,2.611L196.7,359.3l-.95,2.018-4.154.712,3.68-1.9.593-4.036Z" transform="translate(-159.789 -217.226)" fill="url(#bb)"/></g></g><g transform="translate(189.066 502.499)"><path d="M231.4,458.459c-14.362.356-23.027.475-23.027.475L180,491.1c-.475.593,4.51,2.018,7,1.9,40-1.543,76.915-2.493,110.506-3.086h.237c118.933-2.136,203.326,0,227.3-2.73C522.443,479.35,497.16,451.1,497.16,451.1,474.964,453.118,296.564,457.035,231.4,458.459Z" transform="translate(-177.394 -451.1)" fill="#333a4a" opacity="0.1"/><path d="M496.649,479.806S475.165,462.951,457,459.627c-17.567-3.323-7.359,2.137-13.531,1.187-6.053-.95-20.178-5.341-28.131-3.68-8.19,1.662-7.478,4.51-40.95,4.867-33.591.356-71.692-4.036-71.692-4.036L474.216,451.2Z" transform="translate(-154.449 -451.081)" opacity="0.25" fill="url(#bc)"/><path d="M177.8,474.47s3.442,5.341,33.591,9.614c16.5,2.374,20.416-2.493,52.464-.119,32.879,2.493,119.052,7,120.12.475,1.068-6.172,19.585-1.78,9.614-7.834-8.427-5.1-37.508-12.107-37.508-12.107Z" transform="translate(-177.8 -448.595)" opacity="0.25" fill="url(#bd)"/></g><path d="M551.008,251.508c-.356,15.43-4.273,32.879-12.582,50.327-36.084,75.847-69.675,62.2-133.177,70.98-63.5,8.665-39.288,72.286-39.288,72.286L300.2,460.887c-1.543-53.769,82.731-104.215,129.972-125.343s25.757-69.318,49.734-104.571c11.276-16.5,20.06-27.3,29.437-31.573,4.273,11.513.95,24.689-4.748,35.609-5.816,11.157-13.769,21.009-19.229,32.285s-8.071,24.926-2.611,36.2,21.484,17.448,31.336,9.733c7.359-5.816,8.546-16.38,11.157-25.52a66.052,66.052,0,0,1,25.282-35.727A.927.927,0,0,1,551.008,251.508Z" transform="translate(34.147 4.341)" fill="#081839" opacity="0.35"/><g transform="translate(203.143 314.676)"><g transform="translate(98.448 118.86)"><path d="M302.264,438.7,279,481.549h10.683c0-.119.119-.237.119-.475,4.273-9.97,21.484-18.042,38.576-18.042s27.537,8.071,23.264,18.042c0,.119-.119.237-.237.475h10.683L374.906,438.7H302.264Z" transform="translate(-271.403 -384.456)" fill="#c37417"/><path d="M305.924,438.6l-22.79,45.817H277.2l23.264-45.7Z" transform="translate(-271.74 -384.475)" fill="#b56616"/><path d="M377.342,438.7l23.264,46.054H389.924c0-.119-.119-.356-.119-.475-4.273-10.683-21.484-19.466-38.576-19.466s-27.537,8.665-23.264,19.466a.9.9,0,0,0,.237.475H317.519L304.7,438.7Z" transform="translate(-266.599 -384.456)" fill="#ffa836"/><path d="M318.726,484.786s-1.543-27.419,3.086-33.591c4.629-6.054,55.194-11.039,55.194-11.039L306.5,439.8Z" transform="translate(-266.262 -384.25)" fill="#d6a206"/><path d="M301.475,445.906,273.7,414.452l82.138-9.852,18.279,41.306Z" transform="translate(-272.394 -390.831)" fill="#c37417"/><g transform="translate(1.78 1.424)"><path d="M274.1,410.58l29.555,37.033,6.884-7.478,33.947-21.128,22.434-5.223L352.083,394.2l-3.086.593-7.834,1.187-60.772,9.733-.237,3.442-3.086-1.78Z" transform="translate(-274.1 -394.2)" fill="#f6ebbb"/><g transform="translate(9.114 3.071)"><g transform="translate(15.537 5.705)"><path d="M308.793,427.643c-2.137-3.086-5.341-5.46-7.24-8.546-1.068-1.662-1.662-3.442-2.967-4.985-1.187-1.306-2.73-2.374-3.68-3.917-.237-.356.712-.831.95-.475.95,1.543,2.611,2.611,3.8,4.036a36.408,36.408,0,0,1,2.73,4.629c2.018,3.2,5.223,5.579,7.359,8.665.119.356-.712.95-.95.594Z" transform="translate(-294.868 -400.098)" fill="#ffa77e"/><path d="M312.493,426.943c-2.137-3.086-5.341-5.46-7.24-8.546-1.068-1.662-1.662-3.442-2.967-4.985-1.187-1.306-2.73-2.374-3.68-3.917-.237-.356.712-.831.95-.475.95,1.543,2.611,2.611,3.8,4.036a36.406,36.406,0,0,1,2.73,4.629c2.018,3.2,5.223,5.579,7.359,8.665.119.356-.712.95-.95.594Z" transform="translate(-294.176 -400.229)" fill="#ffa77e"/><path d="M316.193,426.143c-2.137-3.086-5.341-5.46-7.24-8.546-1.068-1.662-1.662-3.442-2.967-4.985-1.187-1.306-2.73-2.374-3.68-3.917-.237-.356.712-.831.95-.475.95,1.543,2.611,2.611,3.8,4.036a36.409,36.409,0,0,1,2.73,4.629c2.018,3.2,5.223,5.579,7.359,8.665.119.475-.712,1.068-.95.594Z" transform="translate(-293.485 -400.378)" fill="#ffa77e"/><path d="M319.893,425.443c-2.137-3.086-5.341-5.46-7.24-8.546-1.068-1.662-1.662-3.442-2.967-4.985-1.187-1.306-2.73-2.374-3.68-3.917-.237-.356.712-.831.95-.475.95,1.543,2.611,2.611,3.8,4.036a36.412,36.412,0,0,1,2.73,4.629c2.018,3.2,5.223,5.579,7.359,8.665.119.356-.712.95-.95.594Z" transform="translate(-292.793 -400.509)" fill="#ffa77e"/><path d="M310.543,406.823c.95,1.543,2.611,2.611,3.8,4.036a36.412,36.412,0,0,1,2.73,4.629c1.9,3.086,4.985,5.341,7.122,8.309a2.584,2.584,0,0,0-.593.95c-2.137-3.086-5.341-5.341-7.24-8.546-1.068-1.662-1.662-3.442-2.967-4.985-1.187-1.306-2.73-2.374-3.68-3.917C309.356,406.823,310.306,406.467,310.543,406.823Z" transform="translate(-292.108 -400.643)" fill="#ffa77e"/><path d="M314.256,406.131c.95,1.543,2.611,2.611,3.8,4.036a36.409,36.409,0,0,1,2.73,4.629c1.662,2.611,4.036,4.748,6.053,7a3.555,3.555,0,0,0-.95.475c-2.018-2.255-4.273-4.273-5.935-6.884-1.068-1.662-1.662-3.442-2.967-4.985-1.187-1.306-2.73-2.374-3.68-3.917C313.069,406.131,314.018,405.657,314.256,406.131Z" transform="translate(-291.428 -400.783)" fill="#ffa77e"/><path d="M317.938,405.32c.95,1.543,2.611,2.611,3.8,4.036a36.412,36.412,0,0,1,2.73,4.629c1.424,2.374,3.561,4.273,5.46,6.291-.356.119-.593.237-.95.356-1.78-2.018-3.8-3.8-5.223-6.053-1.068-1.662-1.662-3.442-2.967-4.985-1.187-1.306-2.73-2.374-3.68-3.917C316.869,405.439,317.7,404.964,317.938,405.32Z" transform="translate(-290.718 -400.921)" fill="#ffa77e"/><path d="M321.651,404.623c.95,1.543,2.611,2.611,3.8,4.036a36.408,36.408,0,0,1,2.73,4.629,35.73,35.73,0,0,0,4.748,5.579c-.356.119-.593.237-.95.356a33.247,33.247,0,0,1-4.629-5.341c-1.068-1.662-1.662-3.442-2.967-4.985-1.187-1.306-2.73-2.374-3.68-3.917C320.583,404.623,321.414,404.267,321.651,404.623Z" transform="translate(-290.04 -401.055)" fill="#ffa77e"/><path d="M325.351,403.931c.95,1.543,2.611,2.611,3.8,4.036a36.409,36.409,0,0,1,2.73,4.629,31.383,31.383,0,0,0,4.036,4.867,3.555,3.555,0,0,0-.95.475,28.906,28.906,0,0,1-3.917-4.629c-1.068-1.662-1.662-3.442-2.967-4.985-1.187-1.306-2.73-2.374-3.68-3.917C324.283,403.931,325.114,403.456,325.351,403.931Z" transform="translate(-289.349 -401.194)" fill="#ffa77e"/><path d="M337.958,416.4a31.955,31.955,0,0,1-3.2-3.8c-1.068-1.662-1.662-3.442-2.967-4.985-1.187-1.306-2.73-2.374-3.68-3.917-.237-.356.712-.831.95-.475.95,1.543,2.611,2.611,3.8,4.036a36.412,36.412,0,0,1,2.73,4.629,22.312,22.312,0,0,0,3.323,4.036A7.008,7.008,0,0,0,337.958,416.4Z" transform="translate(-288.661 -401.313)" fill="#ffa77e"/><path d="M341.046,415a16.556,16.556,0,0,1-2.493-3.2c-1.068-1.662-1.662-3.442-2.967-4.985-1.187-1.306-2.73-2.374-3.68-3.917-.237-.356.712-.831.95-.475.95,1.543,2.611,2.611,3.8,4.036a36.412,36.412,0,0,1,2.73,4.629,40.356,40.356,0,0,0,2.73,3.561Z" transform="translate(-287.951 -401.463)" fill="#ffa77e"/><path d="M344.508,413.946a23.651,23.651,0,0,1-2.255-2.849c-1.068-1.662-1.662-3.442-2.967-4.985-1.187-1.306-2.73-2.374-3.68-3.917-.237-.356.712-.831.95-.475.95,1.543,2.611,2.611,3.8,4.036a36.412,36.412,0,0,1,2.73,4.629,22.949,22.949,0,0,0,2.611,3.323C345.22,413.827,344.864,413.827,344.508,413.946Z" transform="translate(-287.259 -401.594)" fill="#ffa77e"/></g><path d="M359.194,410.927a34.988,34.988,0,0,1-8.427-9.377l-1.424-2.493a4.606,4.606,0,0,0-.712-1.306c-.475-.712-1.424-.356-2.255,0-2.967.95-5.935,1.662-8.9,2.374a309.959,309.959,0,0,1-35.609,6.054c-6.647.712-13.175,1.306-19.7,1.9.119-.237.356-.475.475-.712,10.683,5.7,14.362,16.736,21.484,25.164,2.018,2.374,2.493,3.68,5.341,5.46.475.237-.237.95-.712.712-10.089-6.291-11.751-16.5-19.229-24.689a26.775,26.775,0,0,0-7.6-5.935c-.356-.237,0-.712.475-.712,11.988-.95,24.214-2.137,36.321-4.154q9.08-1.424,18.16-3.561c2.967-.712,5.935-1.306,8.9-2.255,1.187-.356,2.374-.95,3.2-.356.712.475.95,1.424,1.306,2.137a34.863,34.863,0,0,0,9.5,11.395c.475,0-.237.712-.593.356Z" transform="translate(-281.778 -396.788)" fill="#ffa77e"/></g></g><g transform="translate(45.342)"><path d="M375.964,426.354l-7.6.237h-.119l-7.478.237h-.95l-5.7.237h-.95l-6.291.237h-.831l-8.071.237h-.95l-4.273.119h-.95l-6.41.237-1.187.712-2.493,1.424A32.176,32.176,0,0,0,310.8,425.4l1.9-9.5L374.54,393C374.658,393.119,380.831,411.4,375.964,426.354Z" transform="translate(-310.8 -393)" fill="#efddb6"/><g transform="translate(13.413 8.782)"><path d="M362.71,401.112c-.712,2.137-.712,4.51-1.187,6.647a63.426,63.426,0,0,1-2.137,6.172c-1.187,3.561-1.543,7.478-2.255,11.157-.237-.119-.593-.356-.831-.475.712-3.561,1.068-7.359,2.137-10.8.712-2.255,1.78-4.273,2.255-6.647a38.167,38.167,0,0,1,1.187-6.41C362.116,400.044,362.828,400.519,362.71,401.112Z" transform="translate(-315.706 -400.399)" fill="#ffa77e"/><path d="M357.2,409.065a63.425,63.425,0,0,1-2.137,6.172c-1.068,3.2-1.424,6.766-2.018,10.089h-.95c.712-3.442,1.068-7,2.137-10.327.712-2.255,1.78-4.273,2.255-6.647a38.166,38.166,0,0,1,1.187-6.41c.237-.593.95-.119.831.475C357.679,404.554,357.679,406.809,357.2,409.065Z" transform="translate(-316.491 -400.161)" fill="#ffa77e"/><path d="M351.485,410.365a63.436,63.436,0,0,1-2.137,6.172,72.215,72.215,0,0,0-1.9,8.784h-.95a71.35,71.35,0,0,1,1.9-9.021c.712-2.255,1.78-4.273,2.255-6.647a38.167,38.167,0,0,1,1.187-6.41c.237-.593.95-.119.831.475C351.841,405.736,351.96,408.109,351.485,410.365Z" transform="translate(-317.538 -399.918)" fill="#ffa77e"/><path d="M325.542,418.346a63.431,63.431,0,0,1-2.137,6.172c0,.119-.119.237-.119.356l-1.187.712c.119-.356.237-.831.356-1.187.712-2.255,1.78-4.273,2.255-6.647a38.164,38.164,0,0,1,1.187-6.41c.119-.593.95-.119.831.475C326.017,413.717,326.017,416.091,325.542,418.346Z" transform="translate(-322.1 -398.404)" fill="#ffa77e"/><g transform="translate(7.597 4.833)"><path d="M345.11,411.865a63.456,63.456,0,0,1-2.136,6.172,37.433,37.433,0,0,0-1.543,7.24H340.6a52.214,52.214,0,0,1,1.543-7.478c.712-2.255,1.78-4.273,2.255-6.647a38.17,38.17,0,0,1,1.187-6.41c.237-.593.95-.119.831.475C345.585,407.354,345.585,409.609,345.11,411.865Z" transform="translate(-326.238 -404.47)" fill="#ffa77e"/><path d="M337.036,414.965a63.434,63.434,0,0,1-2.137,6.172,35.524,35.524,0,0,0-.95,3.8H333a40.172,40.172,0,0,1,.95-4.036c.712-2.255,1.78-4.273,2.255-6.647a38.167,38.167,0,0,1,1.187-6.41c.237-.593.95-.119.831.475C337.51,410.454,337.51,412.828,337.036,414.965Z" transform="translate(-327.659 -403.891)" fill="#ffa77e"/><path d="M331.23,419.365a24.959,24.959,0,0,1-1.78,4.985h-.95a32.1,32.1,0,0,0,1.9-5.7,38.169,38.169,0,0,1,1.187-6.41c.237-.593.95-.119.831.475C331.7,414.736,331.7,417.109,331.23,419.365Z" transform="translate(-328.5 -403.068)" fill="#ffa77e"/></g></g></g><path d="M378.491,443.95,402.7,417.6H316.294L303,443.95Z" transform="translate(-266.916 -388.401)" fill="#b56616"/><path d="M377.024,443.914,397.8,419.7H320.525L306.4,443.558Z" transform="translate(-266.281 -388.008)" fill="#c37417"/><path d="M301.2,439.4l11.513,45.461h7L307.372,439.4Z" transform="translate(-267.253 -384.325)" fill="#b56616"/><path d="M275.686,406.9l30.861,36.44,16.38-25.757,2.374,2.493-14.956,24.57-8.427.119L272.6,410.1Z" transform="translate(-272.6 -390.401)" fill="#ffa836"/><path d="M315,415.9l81.9.119,3.561,2.374H317.374Z" transform="translate(-264.673 -388.719)" fill="#ffa836"/><path d="M297.454,438.7h11.395l2.018,7.834-17.567-.119Z" transform="translate(-268.73 -384.456)" fill="#b56616"/></g><path d="M272.933,358c0,1.662,12.819,36.914,12.819,36.914s37.745,11.157,35.727,16.973-58.517,13.887-58.28,12.938C263.319,423.995,272.933,358,272.933,358Z" transform="translate(-175.91 -280.684)" fill="#3b4660"/><path d="M244.411,478.812s52.938,2.374,55.312-15.312-67.538,3.8-67.538,3.8S211.888,482.254,244.411,478.812Z" transform="translate(-182.878 -262.265)" fill="#3b4660"/><g transform="translate(69.817 198.624)"><path d="M258.712,460.2s-16.5,7.953-7.6,13.413c8.783,5.46,27.3,5.1,32.167,7.122,4.748,2.018,11.514-.119,11.87-7.715.356-10.208-10.445-9.258-10.445-9.258Z" transform="translate(-248.479 -460.2)" fill="#ffb598"/><path d="M257.577,474.439s-8.546-3.8-6.528-6.41c4.154-5.341,31.573-1.187,36.558-1.187,4.985-.119,7.359,3.2,4.985,4.273s-5.935-.119-5.935-.119,5.816,1.424,5.579,2.967c-.119,1.662-.475,5.1-7.6,4.154C275.263,476.932,257.577,474.439,257.577,474.439Z" transform="translate(-248.056 -459.246)" fill="#f4e4bd" opacity="0.55"/></g><g transform="translate(78.507)"><g transform="translate(0 3.13)"><path d="M306.06,323.3s.831,15.668-.95,16.855-4.51-.119-4.51-.119Z" transform="translate(-247.424 -290.301)" fill="#ec9480"/><path d="M301.854,361.16c-4.748,2.967-15.549-8.427-15.787-8.665h0L272.3,366.027l-16.5-20.178s17.8-13.65,19.11-20.3,21.6-24.451,21.6-24.451l22.315,16.261s-6.41,21.247-11.751,34.184C305.059,356.531,303.16,360.329,301.854,361.16Z" transform="translate(-255.8 -294.452)" fill="#ffb598"/><path d="M309.744,326.252a94.212,94.212,0,0,1-13.413-5.1c-4.985-2.611-8.427,8.665-13.531,5.816l4.867-10.564S304.521,317.824,309.744,326.252Z" transform="translate(-250.752 -291.591)" fill="#ec9480" opacity="0.41"/><path d="M299.914,353.312c-.356.593-.593,1.187-.95,1.662-3.561,5.579-11.395-1.662-14.481-4.51-.95-.831-1.9-1.78-2.73-2.611,0,0-7.478-7.834,1.662-22.552,0,0-1.306,15.193,2.73,19.466s4.036-.237,11.157-.475c2.374,0,4.748.594,5.46,2.611A38.957,38.957,0,0,1,299.914,353.312Z" transform="translate(-251.486 -289.928)" fill="#ec9480"/><path d="M294.6,314.61s-2.849,16.855-8.9,16.261c0,0,2.967-6.884-.475-7.715-3.917-1.068-7.478,2.374-5.46,13.294,0,0-14.956-2.374-11.276-19.229s4.985-15.905,22.077-20.416,27.3,3.2,25.876,14.718c-1.187,9.377,3.2,14.243-1.187,13.531C308.73,323.75,303.507,330.159,294.6,314.61Z" transform="translate(-253.536 -295.499)" fill="#9e4343"/><path d="M297.269,349.887c-5.935-2.255-3.917-5.935-3.917-5.935a6.36,6.36,0,0,1,6.172,1.306c-.119.237-.237.593-.356.831-.119.119-.119.237-.237.356s-.119.237-.237.356A19.221,19.221,0,0,1,297.269,349.887Z" transform="translate(-248.841 -286.503)" fill="#ffb598"/></g><path d="M315.908,329.94c-3.561-3.323-9.377-5.46-15.549-6.884-15.43-3.442-34.3-2.374-33.354-3.442,0,0,2.018-35.015,39.17-24.926C330.152,301.335,319.232,333.026,315.908,329.94Z" transform="translate(-253.711 -292.862)" fill="#8ac4e5"/><path d="M311.728,329.634c-3.561-3.323-9.377-5.46-15.549-6.884-1.662-1.068-2.611-1.78-2.611-1.78s-10.208-7.478,1.068-6.647,15.074,8.783,15.668-.237c.593-7.834-9.852-13.175-8.309-19.585C324.784,304.47,315.051,332.72,311.728,329.634Z" transform="translate(-249.531 -292.556)" fill="url(#be)"/><path d="M266.477,313.877s-1.306,3.2.356,3.8,24.926-.237,31.336,1.78c6.528,2.018,15.668,9.258,18.991,8.309,3.2-.831-2.73-3.8-8.19-7.359C297.219,312.572,278.228,312.928,266.477,313.877Z" transform="translate(-253.895 -289.025)" fill="#fff"/></g><path d="M293.047,374.119c-.593,25.876-13.65,49.615-15.549,59.348-.831,4.392-3.917,9.852-5.816,14.125-3.086,7.122,3.68,10.92-3.8,16.024-22.552,15.312-77.865,25.757-77.983,7.122-.237-44.511,9.852-105.165,70.624-132.821,2.611-1.187,23.027,7.834,27.656,9.97C292.573,349.786,293.285,361.537,293.047,374.119Z" transform="translate(-189.615 -284.458)" fill="#b6e5fa"/><path d="M281.661,370.232c.475,20.06-17.567,67.538-19.466,71.811-7.24-2.255-6.884-12.107-6.884-12.107s10.327-6.528,14.837-18.517c4.392-11.87-19.347-23.146-19.347-23.146L266.349,358.6s.475,23.5,7.715,17.686C276.557,374.268,279.287,372.25,281.661,370.232Z" transform="translate(-178.228 -280.572)" fill="url(#bf)"/><path d="M319.675,463.2c-14.125,13.294-50.8,1.424-82.375,21.365-20.891,13.175-32.167,3.561-37.508-4.51a35.426,35.426,0,0,1-3.917-7.953c-2.018-9.377-1.187-17.211,1.662-23.5,8.665-19.7,35.727-26.35,52.345-28.606,3.917-.475,7.24-.831,9.614-.95,2.493-.119,3.917-.119,3.917-.119a7.326,7.326,0,0,0,1.068-.119c4.273-.712,19.347,4.985,37.033,4.629,2.018,0,3.917,0,5.7.119,7,.593,11.751,2.493,15.074,5.341C333.325,438.513,325.135,458.1,319.675,463.2Z" transform="translate(-188.705 -269.326)" fill="#346d94"/><path d="M259.5,419.232c2.493.593,6.054-3.2,6.528-.475,4.154,24.1,3.323,27.775-48.547,47.241-14.481,5.46-17.567,9.377-17.686,14.125a35.427,35.427,0,0,1-3.917-7.953c-2.018-9.377-1.187-17.211,1.662-23.5,17.33-11.632,38.576-24.57,52.345-28.606C253.68,419.113,257,418.757,259.5,419.232Z" transform="translate(-188.705 -269.511)" fill="url(#bg)"/><path d="M248,338.172s.356-2.137,3.2-4.867,12.226,3.561,18.16,6.528c5.816,2.967,16.617,12.226,16.617,12.226s2.611,10.327-2.493,11.039C278.267,363.692,248,338.172,248,338.172Z" transform="translate(-178.752 -285.426)" fill="#fff"/><path d="M195.761,470.4c6.053,10.683,22.671-21.247,43.68-22.434S266.86,418.65,266.86,418.65a144.045,144.045,0,0,0-45.579-.831C196.117,421.38,180.331,442.745,195.761,470.4Z" transform="translate(-189.659 -269.76)" fill="#b6e5fa"/><path d="M197.878,476.9s-1.424-63.028,27.3-87.716,33.71-36.558,18.991-31.929S184.7,398.917,197.878,476.9Z" transform="translate(-188.571 -281.007)" fill="#fff" opacity="0.35"/><g transform="translate(45.393 69.958)"><path d="M286.211,410.4l13.769-.356s9.021-5.1,10.089-3.917-2.137,5.7-2.137,5.7l14.125-2.967s12.582,2.849-.475,11.157-16.5,7-21.6,4.392c-4.273-2.137-16.38-4.629-16.38-4.629Z" transform="translate(-217.488 -341.677)" fill="#ffb598"/><path d="M305.171,418.488C295.438,408.4,263.034,400.8,263.034,400.8s15.549-22.315,15.312-31.217c-.237-7.715-13.887-20.891-25.994-16.974-16.38,5.46-26.113,39.763-24.214,55.194.95,7.359,31.454,21.365,54.125,25.876a61.918,61.918,0,0,0,11.276,1.543C305.408,435.106,309.919,423.355,305.171,418.488Z" transform="translate(-227.902 -351.782)" fill="#346d94"/><path d="M274.513,369.486c.237,8.9-15.312,31.217-15.312,31.217s32.523,7.6,42.137,17.686c4.748,4.985.237,16.617-11.632,16.736a77.015,77.015,0,0,1-11.276-1.543c4.748-1.543,12.938-5.341,14.362-13.175,2.137-11.276-36.084-19.585-36.084-19.585s2.137-22.2,8.19-35.49c6.172-13.294-16.5-12.819-16.5-12.819C260.626,348.6,274.394,361.77,274.513,369.486Z" transform="translate(-224.069 -351.8)" fill="url(#bh)"/></g></g><g transform="translate(172.28 203.277)" opacity="0.35"><g opacity="0.9"><path d="M254.51,208.613c-7.6-6.291-17.8-8.19-27.656-9.14-7.715-.712-15.668-.831-23.146,1.306s-14.481,7-17.686,14.006c-2.849,6.053-2.849,13.531-7,18.754-2.611,3.324-6.41,5.223-9.614,7.834s-6.172,6.291-5.7,10.445a7.934,7.934,0,0,0,.95,2.967c2.967,5.1,10.445,5.935,16.143,4.273,12.226-3.561,28.25-13.294,49.14-14.125,11.157-.475,24.57-.712,30.624-10.089C265.905,226.654,262.107,214.9,254.51,208.613Z" transform="translate(-163.658 -199.009)" fill="#081839"/></g><circle cx="19.822" cy="19.822" r="19.822" transform="translate(392.34 173.523)" fill="#081839"/></g></g></svg>