<svg xmlns="http://www.w3.org/2000/svg" xmlns:xlink="http://www.w3.org/1999/xlink" width="255.742" height="249.035" viewBox="0 0 255.742 249.035"><defs><linearGradient id="a" x1="-4.519" y1="-0.151" x2="-3.663" y2="-1.268" gradientUnits="objectBoundingBox"><stop offset="0" stop-color="#30944c"/><stop offset="0.41" stop-color="#8abb62"/><stop offset="0.816" stop-color="#dedf77"/><stop offset="1" stop-color="#ffed7f"/></linearGradient><linearGradient id="b" x1="-5.381" y1="-0.334" x2="-3.55" y2="-0.461" xlink:href="#a"/><linearGradient id="c" x1="-7.87" y1="-0.123" x2="-6.389" y2="-1.082" xlink:href="#a"/><linearGradient id="d" x1="0.519" y1="-0.647" x2="0.493" y2="1.156" gradientUnits="objectBoundingBox"><stop offset="0" stop-color="#e3cbba"/><stop offset="0.253" stop-color="#dbbaa2"/><stop offset="0.784" stop-color="#c88f65"/><stop offset="1" stop-color="#bf7c4a"/></linearGradient><linearGradient id="e" x1="0.508" y1="-0.464" x2="0.489" y2="1.418" gradientUnits="objectBoundingBox"><stop offset="0" stop-color="gray"/><stop offset="0.639" stop-color="#52524d"/><stop offset="1" stop-color="#3c3c35"/></linearGradient><linearGradient id="f" x1="0.969" y1="0.508" x2="0.071" y2="0.481" gradientUnits="objectBoundingBox"><stop offset="0.003" stop-color="#fff"/><stop offset="0.367" stop-color="#f2f2ff"/><stop offset="1" stop-color="#d2d2ff"/></linearGradient><linearGradient id="g" x1="-1.08" y1="0.51" x2="2.899" y2="0.485" xlink:href="#f"/><linearGradient id="h" x1="2.326" y1="0.537" x2="-3.183" y2="0.425" xlink:href="#f"/><linearGradient id="i" x1="0.502" y1="-1.881" x2="0.499" y2="1.312" xlink:href="#f"/><linearGradient id="j" x1="-0.261" y1="0.487" x2="3.125" y2="0.544" xlink:href="#f"/><linearGradient id="k" x1="0.278" x2="1.158" y2="1.977" gradientUnits="objectBoundingBox"><stop offset="0" stop-color="#ffd571"/><stop offset="0.251" stop-color="#ffbd60"/><stop offset="0.778" stop-color="#ff8035"/><stop offset="1" stop-color="#ff6421"/></linearGradient><linearGradient id="l" x1="0.277" y1="0" x2="1.158" y2="1.978" xlink:href="#k"/><linearGradient id="m" x1="0.277" y1="-0.001" x2="1.158" y2="1.976" xlink:href="#k"/><linearGradient id="n" x1="-26.489" y1="0.001" x2="-25.609" y2="1.978" xlink:href="#k"/><linearGradient id="o" x1="-39.392" y1="0.005" x2="-38.515" y2="1.975" xlink:href="#k"/><linearGradient id="p" x1="-48.637" y1="0" x2="-47.756" y2="1.976" xlink:href="#k"/></defs><g transform="translate(-2260.309 15431.035)"><g transform="translate(2260.309 -15431.035)"><ellipse cx="125.289" cy="45.466" rx="125.289" ry="45.466" transform="translate(0 158.103)" opacity="0.1"/><g transform="translate(73.647)"><g transform="translate(38.997)"><path d="M1660.335,335.748s51.638-19.544,64.619-51.659c15.9-39.4,10.863-62.089,10.863-62.089S1655.645,234.611,1660.335,335.748Z" transform="translate(-1660.137 -221.979)" fill="url(#a)"/><path d="M1729.357,246.9l-1.3.062-13.6.638c13.537-18.557,21.622-25.7,21.622-25.7a160.5,160.5,0,0,0-23.186,23.083l.185-9.813-2.921,13.146c-3.271,4.053-6.419,8.229-9.443,12.467l2.181-15.162-4.608,18.618c-2.428,3.5-4.773,7.036-7.015,10.533l1.378-21.416-4.711,26.7c-3.024,4.9-5.843,9.69-8.414,14.257l-1.358-17.034-2.489,23.988c-2.551,4.711-4.814,9.073-6.768,12.94l.885-19.544-4.793,25.84c-2.407,5.678-4.505,12.015-4.505,12.015l.123,3.168,4.135-1.708a84.253,84.253,0,0,1,4.876-12.2l18.187-10.307-14.833,4.505q3.271-6.264,6.419-12.035l23.268-8.62-20.285,3.189q4.505-8.054,8.7-15.142l21.828-7.242-19.133,2.736q3.734-6.141,7.18-11.5l22.075-9.073-18.8,4.073c3.045-4.588,5.9-8.723,8.558-12.447Z" transform="translate(-1660.425 -221.9)" fill="#149173"/></g><g transform="translate(0 3.868)"><path d="M1513.85,351.012s-38.327-27.383-42.01-56.719c-4.526-35.961,4.608-53.592,4.608-53.592S1539.792,268.617,1513.85,351.012Z" transform="translate(-1470.582 -240.7)" fill="url(#b)"/><path d="M1499.2,262.775l1.049.329,11.068,3.5c-7.118-18.269-12.22-25.9-12.22-25.9a137.731,137.731,0,0,1,14.092,24.091l2-8.126-.473,11.48c1.81,4.053,3.5,8.188,5.061,12.344l1.522-12.982-.267,16.355c1.234,3.415,2.407,6.83,3.477,10.2l3.539-17.96-1.954,23.042c1.419,4.691,2.695,9.258,3.827,13.6l4.855-13.763-3.189,20.326c1.07,4.444,2,8.538,2.757,12.138l3.539-16.314-1.687,22.342c.761,5.2,1.09,10.9,1.09,10.9l-.782,2.592-3.045-2.3a71.874,71.874,0,0,0-1.358-11.13l-12.755-12.488L1530.6,332c-.885-3.929-1.769-7.694-2.674-11.336l-17.3-12.179,16.026,7.057q-1.944-7.622-3.868-14.38l-16.417-10.739,15.183,6.439q-1.728-5.863-3.415-11.048l-16.232-12.3,14.627,7.468c-1.5-4.444-2.962-8.476-4.341-12.117Z" transform="translate(-1493.233 -240.7)" fill="#149173"/></g><g transform="translate(28.796 12.488)"><path d="M1623.3,383.88s-19.194-36.64-10.472-61.1c10.7-29.975,24.832-40.179,24.832-40.179S1676.271,329.568,1623.3,383.88Z" transform="translate(-1610.551 -282.6)" fill="url(#c)"/><path d="M1664.776,300.022l.7.679,7.283,7.139c1.646-17.137.679-25.14.679-25.14a121.427,121.427,0,0,1,1.5,24.461l4.794-5.6-4.917,8.805c-.185,3.888-.514,7.818-.926,11.685l6.336-9.566L1673.54,325.2c-.391,3.168-.823,6.316-1.317,9.381l9.9-12.673-10.657,17.3c-.741,4.238-1.543,8.332-2.387,12.179l9.237-8.867-10.554,14.668c-.905,3.909-1.81,7.489-2.654,10.616l9.237-11.377-10.183,16.849c-1.461,4.382-3.456,8.97-3.456,8.97l-1.646,1.708-1.461-3a61.03,61.03,0,0,0,3.333-9.258l-5.061-14.833,6.069,9.9c.864-3.436,1.666-6.727,2.407-9.937l-8.744-16.4,9.772,11.891c1.008-4.505,1.872-8.764,2.654-12.817l-8.62-14.936,9.34,11.068c.638-3.518,1.214-6.871,1.708-10.019l-7.838-16.067,8.517,11.644q.864-6.11,1.4-11.233Z" transform="translate(-1646.332 -282.679)" fill="#149173"/></g></g><g transform="translate(33.081 45.816)"><g transform="translate(0 18.413)"><path d="M1868.464,1029.6l30.983,13.661.617,36.208L1824.5,1047.7Z" transform="translate(-1711.123 -927.661)" fill="#8c6239"/><path d="M1285.7,1077.64v-37.463l31.127-12.076,46.371,17.775Z" transform="translate(-1283.17 -926.47)" fill="#8c6239"/><path d="M1478.227,610.96l-5.081-76.86-88.278,31.765L1296.589,534.1l-3.189,76.86,90.521,39.047Z" transform="translate(-1289.286 -534.1)" fill="url(#d)"/><path d="M1462.115,623.361l.555,1.255-3.168-83.835-2.551-5.081.638,77.478.288.638-89.533,35.241-88.587-36.064,1.255-77.292-3.806,3.168-3.806,86.386,79.062,29.522-76.84,31.765L1282.6,696.7l85.748-35.571,88.3,35.571,5.7-9.525-75.564-31.765,75.564-31.127Z" transform="translate(-1273.4 -535.371)" fill="#a67c52"/></g><g transform="translate(9.525)"><path d="M1319.7,474.672v80.234a1.5,1.5,0,0,0,.926,1.378l83.629,34.953a1.644,1.644,0,0,0,1.131.021l83.608-33.061a1.5,1.5,0,0,0,.946-1.4v-81.51a1.487,1.487,0,0,0-1.893-1.44l-83.135,22.568a1.763,1.763,0,0,1-.8,0l-82.5-23.165A1.482,1.482,0,0,0,1319.7,474.672Z" transform="translate(-1319.7 -467.307)" fill="url(#e)"/><path d="M1339.8,454.125v74.947l80.646,33.657,81.3-31.744v-76.86l-16.52-9.525-64.146,25.408L1356.3,444.6Z" transform="translate(-1335.665 -444.6)" fill="url(#f)"/><path d="M1356.3,444.6v74.947l-16.5,9.525V454.125Z" transform="translate(-1335.665 -444.6)" fill="url(#g)"/><path d="M2047.029,520.493l16.191,10.492v-76.86L2046.7,444.6Z" transform="translate(-1897.135 -444.6)" fill="url(#h)"/><path d="M1356.3,808.9l64.784,25.408L1485.23,808.9l16.52,11.439-80.667,31.744L1339.8,818.425Z" transform="translate(-1335.665 -733.953)" fill="url(#i)"/><path d="M1484.784,470.008v74.947L1420,519.547V444.6Z" transform="translate(-1399.365 -444.6)" fill="url(#j)"/><g transform="translate(7.386 2.86)"><g opacity="0.05"><path d="M1467.575,559.39l.144-.062.144.062.062-.144,68.714-26.951v-.165l-.329-73.63h-.473l.329,73.466-68.446,26.848-68.446-26.848.329-73.466h-.494l-.309,73.63v.165l68.714,26.951Z" transform="translate(-1389.913 -458.5)"/><path d="M1450.419,574.082l.144-.062.144.062.062-.144,73.157-28.864V470.6h-.473v74.165l-72.89,28.74-72.89-28.74V470.6h-.473v74.474l73.157,28.864Z" transform="translate(-1372.756 -468.111)"/><path d="M1511.213,483h-.473v74.783l-77.333,30.654-77.333-30.654V483h-.473v75.112l77.6,30.756.062.144.144-.062.144.062.062-.144,77.6-30.756Z" transform="translate(-1355.6 -477.96)"/></g><g transform="translate(23.648 11.834)"><g transform="translate(0 0)" opacity="0.2"><g transform="translate(0.005 19.053)"><rect width="0.473" height="45.795" transform="translate(0 0.446) rotate(-70.561)"/></g><g transform="translate(0.002 38.105)"><rect width="0.473" height="45.795" transform="translate(0 0.446) rotate(-70.561)"/></g><g transform="translate(0.008)"><rect width="0.473" height="45.795" transform="translate(0 0.446) rotate(-70.561)"/></g><g transform="translate(0.007 9.526)"><rect width="0.473" height="45.795" transform="translate(0 0.446) rotate(-70.561)"/></g><g transform="translate(0.003 28.579)"><rect width="0.473" height="45.795" transform="translate(0 0.446) rotate(-70.561)"/></g><g transform="translate(0 47.632)"><rect width="0.473" height="45.795" transform="translate(0 0.446) rotate(-70.561)"/></g></g><g transform="translate(65.431 0.613)" opacity="0.2"><g transform="translate(0.001 19.051)"><rect width="45.795" height="0.473" transform="translate(0 15.268) rotate(-19.475)"/></g><g transform="translate(0 38.102)"><rect width="45.795" height="0.473" transform="translate(0 15.268) rotate(-19.475)"/></g><g transform="translate(0)"><g transform="translate(0.001)"><rect width="45.795" height="0.473" transform="translate(0 15.268) rotate(-19.475)"/></g><g transform="translate(0.001 9.525)"><rect width="45.795" height="0.473" transform="translate(0 15.268) rotate(-19.475)"/></g><g transform="translate(0 28.576)"><rect width="45.795" height="0.473" transform="translate(0 15.268) rotate(-19.475)"/></g><g transform="translate(0.006 47.646)"><rect width="45.795" height="0.473" transform="translate(0 15.268) rotate(-19.475)"/></g></g></g></g></g></g></g><g transform="translate(13.599 26.827)"><path d="M1186.23,372.333l-1.831-3.683a4.061,4.061,0,0,0-1.954-1.893l-3.744-1.728,3.682-1.831a4.061,4.061,0,0,0,1.893-1.954L1186,357.5l1.831,3.683a4.06,4.06,0,0,0,1.954,1.893l3.744,1.728-3.683,1.831a4.06,4.06,0,0,0-1.893,1.954Z" transform="translate(-1178.7 -356.43)" fill="url(#k)"/><path d="M1223.352,443.461l-1.152-2.325a2.574,2.574,0,0,0-1.234-1.193l-2.366-1.09,2.325-1.152a2.573,2.573,0,0,0,1.193-1.234l1.09-2.366,1.152,2.325a2.573,2.573,0,0,0,1.234,1.193l2.366,1.09-2.325,1.152a2.574,2.574,0,0,0-1.193,1.234Z" transform="translate(-1210.391 -417.271)" fill="url(#l)"/><path d="M1266.106,358.41l-.761-1.522a1.647,1.647,0,0,0-.8-.782l-1.543-.7,1.522-.761a1.647,1.647,0,0,0,.782-.8l.7-1.543.761,1.522a1.647,1.647,0,0,0,.8.782l1.543.7-1.522.761a1.647,1.647,0,0,0-.782.8Z" transform="translate(-1245.657 -352.3)" fill="url(#m)"/></g><g transform="translate(236.65 117.595)"><path d="M2304.381,829.147l1.461-2.921a3.307,3.307,0,0,1,1.543-1.5l2.962-1.358-2.921-1.461a3.309,3.309,0,0,1-1.5-1.543l-1.358-2.963-1.461,2.921a3.31,3.31,0,0,1-1.543,1.5l-2.963,1.358,2.921,1.461a3.308,3.308,0,0,1,1.5,1.543Z" transform="translate(-2291.255 -812.483)" fill="url(#n)"/><path d="M2266.562,800.947l.926-1.852a2.008,2.008,0,0,1,.987-.946l1.872-.864-1.852-.926a2.009,2.009,0,0,1-.947-.987l-.864-1.872-.926,1.852a2.008,2.008,0,0,1-.988.946l-1.872.864,1.852.926a2.009,2.009,0,0,1,.946.987Z" transform="translate(-2262.9 -793.5)" fill="url(#o)"/><path d="M2291.966,885.334l.782-1.543a1.825,1.825,0,0,1,.823-.8l1.563-.72-1.543-.782a1.826,1.826,0,0,1-.8-.823l-.72-1.563-.782,1.543a1.826,1.826,0,0,1-.823.8l-1.564.72,1.543.782a1.826,1.826,0,0,1,.8.823Z" transform="translate(-2283.551 -861.49)" fill="url(#p)"/></g></g></g></svg>