<svg xmlns="http://www.w3.org/2000/svg" xmlns:xlink="http://www.w3.org/1999/xlink" width="261.758" height="258.189" viewBox="0 0 261.758 258.189"><defs><linearGradient id="a" x1="0.318" y1="0.167" x2="1.013" y2="1.44" gradientUnits="objectBoundingBox"><stop offset="0" stop-color="#bbe9f5"/><stop offset="1" stop-color="#50c3ef"/></linearGradient><linearGradient id="b" x1="0.434" y1="0.23" x2="0.624" y2="1.092" xlink:href="#a"/><clipPath id="c"><path d="M81.466,111.414a76.953,76.953,0,0,1,12.467-2.71A18.9,18.9,0,0,0,97,107.982a24.032,24.032,0,0,0,16.261-17.706A45.625,45.625,0,0,1,191.5,74.014h0a24.417,24.417,0,0,0,22.765,8.311h0a64.27,64.27,0,1,1-2.891,125.751c-8.13-1.807-14.454-3.433-22.043-1.084-9.4,3.072-14.093,9.937-19.874,18.79a76.659,76.659,0,1,1-87.99-114.368Z" transform="translate(-28.242 -58.082)"/></clipPath><linearGradient id="d" x1="0.502" y1="1.181" x2="0.502" y2="0.427" gradientUnits="objectBoundingBox"><stop offset="0" stop-color="#ff9326"/><stop offset="0.99" stop-color="#f9c83f"/></linearGradient><linearGradient id="e" x1="0.007" y1="0.49" x2="1.002" y2="0.49" xlink:href="#d"/><linearGradient id="f" x1="0.012" y1="0.494" x2="1.049" y2="0.494" xlink:href="#d"/><linearGradient id="g" x1="0.063" y1="-0.102" x2="0.822" y2="1.194" gradientUnits="objectBoundingBox"><stop offset="0" stop-color="#fbed8f"/><stop offset="0.376" stop-color="#fbe43c"/><stop offset="1" stop-color="#ff9326"/></linearGradient><linearGradient id="h" x1="-0.55" y1="-1.358" x2="1.789" y2="2.837" xlink:href="#g"/><linearGradient id="i" x1="0.322" y1="0.048" x2="0.627" y2="0.822" gradientUnits="objectBoundingBox"><stop offset="0" stop-color="#123659"/><stop offset="1" stop-color="#171c24"/></linearGradient><linearGradient id="j" x1="0.321" y1="0.1" x2="0.766" y2="1.095" gradientUnits="objectBoundingBox"><stop offset="0" stop-color="#f06465"/><stop offset="1" stop-color="#f0423b"/></linearGradient><linearGradient id="k" x1="0.109" y1="0.048" x2="0.927" y2="1.412" xlink:href="#j"/><linearGradient id="l" x1="0.607" y1="-0.063" x2="0.314" y2="1.08" gradientUnits="objectBoundingBox"><stop offset="0" stop-color="#ec9383"/><stop offset="1" stop-color="#ffbfaf"/></linearGradient><linearGradient id="m" x1="0.457" y1="-0.138" x2="0.718" y2="1.415" xlink:href="#j"/><linearGradient id="n" x1="-0.001" y1="0.502" x2="0.998" y2="0.502" xlink:href="#l"/><linearGradient id="o" x1="0.269" y1="-0.007" x2="0.724" y2="1.224" xlink:href="#j"/><linearGradient id="p" x1="-0.026" y1="0.537" x2="1" y2="0.537" xlink:href="#j"/><linearGradient id="q" x1="0.392" y1="-0.137" x2="0.569" y2="0.728" xlink:href="#j"/><linearGradient id="r" x1="0.529" y1="0.554" x2="0.877" y2="0.903" xlink:href="#l"/><linearGradient id="s" x1="0.606" y1="0.483" x2="0" y2="0.665" xlink:href="#l"/><linearGradient id="t" x1="0.586" y1="0.187" x2="0.31" y2="0.895" xlink:href="#l"/><linearGradient id="u" x1="0.394" y1="-0.003" x2="0.572" y2="0.931" gradientUnits="objectBoundingBox"><stop offset="0" stop-color="#14184f"/><stop offset="1" stop-color="#1f0a27"/></linearGradient><linearGradient id="v" x1="0.007" y1="0.502" x2="1.001" y2="0.502" xlink:href="#i"/><linearGradient id="w" x1="0.236" y1="0.162" x2="0.59" y2="0.72" xlink:href="#i"/><linearGradient id="x" x1="-0.016" y1="0.508" x2="1" y2="0.508" xlink:href="#i"/><linearGradient id="y" x1="-0.02" y1="0.503" x2="0.975" y2="0.503" xlink:href="#i"/><linearGradient id="z" x1="1.06" y1="1.141" x2="0.271" y2="0.213" gradientUnits="objectBoundingBox"><stop offset="0" stop-color="#710e76"/><stop offset="0.483" stop-color="#f23f6c"/><stop offset="1" stop-color="#ef7544"/></linearGradient><linearGradient id="aa" x1="0.023" y1="1.401" x2="0.524" y2="0.407" xlink:href="#z"/></defs><g transform="translate(-28.242 -27.599)"><path d="M75.845,62.789C84.879,70.2,86.686,83.024,80,91.155s-19.513,8.853-28.547,1.265C42.42,85.012,40.613,72.184,47.3,64.053,53.984,55.742,66.812,55.2,75.845,62.789Z" transform="translate(12.125 24.074)" fill="url(#a)"/><g transform="translate(65.386 53.076)"><g transform="translate(0 7.227)"><rect width="0.903" height="5.059" transform="translate(9.937 3.252)" fill="#622272"/><path d="M57.424,75.85c-1.084-.542-5.782-3.072-6.324-7.95H63.567C63.205,72.959,58.508,75.308,57.424,75.85Z" transform="translate(-46.944 -27.79)" fill="#ea3d71"/><path d="M66.964,60.021H49.8c.361-7.046,7.227-10.479,8.672-11.021C59.737,49.723,66.6,53.156,66.964,60.021Z" transform="translate(-47.993 -43.038)" fill="#ea3d71"/><path d="M68.132,75.336H67.41V57.991h.723a1.425,1.425,0,0,0,1.445-1.445A1.554,1.554,0,0,0,68.132,55.1H50.245a1.445,1.445,0,1,0,0,2.891h.723V75.336h-.723A1.425,1.425,0,0,0,48.8,76.781a1.554,1.554,0,0,0,1.445,1.445H68.132a1.425,1.425,0,0,0,1.445-1.445A1.33,1.33,0,0,0,68.132,75.336Z" transform="translate(-48.8 -38.116)" fill="#622272"/><path d="M50.4,72.754V58.3A10.964,10.964,0,0,1,51.845,63v9.937H50.4Z" transform="translate(-47.509 -35.535)" fill="#ffc42b"/><path d="M52.5,73.057V63.119c0-2.168,2.891-4.7,3.252-5.059a.821.821,0,0,1,.9,0c.361.361,3.252,2.891,3.252,5.059v9.937Z" transform="translate(-45.815 -35.837)" fill="#ffc42b"/><path d="M57.8,72.754V62.817A10.224,10.224,0,0,1,59.245,58.3V72.754Z" transform="translate(-41.539 -35.535)" fill="#ffc42b"/><g transform="translate(8.311)"><path d="M53.4,47.687A1.987,1.987,0,1,0,55.387,45.7,2.005,2.005,0,0,0,53.4,47.687Zm.9,0a1.084,1.084,0,1,1,1.084,1.084C54.845,48.952,54.3,48.41,54.3,47.687Z" transform="translate(-53.4 -45.7)" fill="#ea3d71"/></g><rect width="16.442" height="1.265" transform="translate(2.168 19.874)" fill="#622272" opacity="0.3"/><path d="M60.743,67.9H54.6v7.95C55.684,75.308,60.382,72.959,60.743,67.9Z" transform="translate(-44.121 -27.79)" fill="#ea3d71" opacity="0.3"/><path d="M64.9,76.781a1.425,1.425,0,0,0-1.445-1.445H62.73V57.991h.723A1.425,1.425,0,0,0,64.9,56.545,1.554,1.554,0,0,0,63.453,55.1H54.6V78.407h8.853A1.713,1.713,0,0,0,64.9,76.781Z" transform="translate(-44.121 -38.116)" fill="#622272" opacity="0.3"/><path d="M63.172,60.021C62.811,52.975,55.945,49.542,54.5,49V60.021Z" transform="translate(-44.201 -43.038)" fill="#ea3d71" opacity="0.3"/></g><rect width="0.723" height="8.311" transform="translate(10.118)" fill="#622272"/></g><g transform="translate(28.242 82.674)"><path d="M81.466,111.414a76.953,76.953,0,0,1,12.467-2.71A18.9,18.9,0,0,0,97,107.982a24.032,24.032,0,0,0,16.261-17.706A45.625,45.625,0,0,1,191.5,74.014h0a24.417,24.417,0,0,0,22.765,8.311h0a64.27,64.27,0,1,1-2.891,125.751c-8.13-1.807-14.454-3.433-22.043-1.084-9.4,3.072-14.093,9.937-19.874,18.79a76.659,76.659,0,1,1-87.99-114.368Z" transform="translate(-28.242 -58.082)" fill="url(#b)"/><g transform="translate(0 0)" clip-path="url(#c)"><g transform="translate(160.907 82.783)"><rect width="50.77" height="6.685" transform="translate(42.098)" fill="#dddcee"/><rect width="50.77" height="1.084" transform="translate(42.098 5.601)" fill="#7d666b"/><path d="M146.086,107.6h50.951l12.286,3.975H133.8Z" transform="translate(-103.988 -100.915)" fill="#fff"/><path d="M133.8,109.8h75.523v13.37H133.8Z" transform="translate(-103.988 -99.14)" fill="#d1cfcf"/><g transform="translate(44.446 1.084)"><path d="M166.3,107.933v-1.626a2.492,2.492,0,0,1,1.084-1.807,2.492,2.492,0,0,1,1.084,1.807v1.626Z" transform="translate(-122.215 -104.5)" fill="#7d666b"/><path d="M163.2,107.933v-1.626a2.492,2.492,0,0,1,1.084-1.807,2.492,2.492,0,0,1,1.084,1.807v1.626Z" transform="translate(-124.716 -104.5)" fill="#7d666b"/><path d="M160.2,107.933v-1.626a2.492,2.492,0,0,1,1.084-1.807,2.492,2.492,0,0,1,1.084,1.807v1.626Z" transform="translate(-127.136 -104.5)" fill="#7d666b"/><path d="M157.1,107.933v-1.626a2.492,2.492,0,0,1,1.084-1.807,2.492,2.492,0,0,1,1.084,1.807v1.626Z" transform="translate(-129.637 -104.5)" fill="#7d666b"/><path d="M154.1,107.933v-1.626a2.492,2.492,0,0,1,1.084-1.807,2.492,2.492,0,0,1,1.084,1.807v1.626Z" transform="translate(-132.057 -104.5)" fill="#7d666b"/><path d="M151,107.933v-1.626a2.492,2.492,0,0,1,1.084-1.807,2.492,2.492,0,0,1,1.084,1.807v1.626Z" transform="translate(-134.558 -104.5)" fill="#7d666b"/><path d="M148,107.933v-1.626a2.492,2.492,0,0,1,1.084-1.807,2.492,2.492,0,0,1,1.084,1.807v1.626Z" transform="translate(-136.979 -104.5)" fill="#7d666b"/><path d="M144.9,107.933v-1.626a2.492,2.492,0,0,1,1.084-1.807,2.492,2.492,0,0,1,1.084,1.807v1.626Z" transform="translate(-139.48 -104.5)" fill="#7d666b"/><path d="M141.9,107.933v-1.626a2.492,2.492,0,0,1,1.084-1.807,2.492,2.492,0,0,1,1.084,1.807v1.626Z" transform="translate(-141.9 -104.5)" fill="#7d666b"/></g><g transform="translate(33.967 12.647)"><g transform="translate(10.299)"><path d="M170.4,120.3v-5.24c0-2.71,2.71-4.156,2.71-4.156s2.71,1.445,2.71,4.156v5.24Z" transform="translate(-118.726 -110.9)" fill="#7d666b"/><path d="M164.7,120.3v-5.24c0-2.71,2.71-4.156,2.71-4.156s2.71,1.445,2.71,4.156v5.24Z" transform="translate(-123.325 -110.9)" fill="#7d666b"/><path d="M159,120.3v-5.24c0-2.71,2.71-4.156,2.71-4.156s2.71,1.445,2.71,4.156v5.24Z" transform="translate(-127.924 -110.9)" fill="#7d666b"/><path d="M153.2,120.3v-5.24c0-2.71,2.71-4.156,2.71-4.156s2.71,1.445,2.71,4.156v5.24Z" transform="translate(-132.603 -110.9)" fill="#7d666b"/><path d="M147.5,120.3v-5.24c0-2.71,2.71-4.156,2.71-4.156s2.71,1.445,2.71,4.156v5.24Z" transform="translate(-137.201 -110.9)" fill="#7d666b"/><path d="M141.8,120.3v-5.24c0-2.71,2.71-4.156,2.71-4.156s2.71,1.445,2.71,4.156v5.24Z" transform="translate(-141.8 -110.9)" fill="#7d666b"/></g><path d="M136.1,120.3v-5.24c0-2.71,2.71-4.156,2.71-4.156s2.71,1.445,2.71,4.156v5.24Z" transform="translate(-136.1 -110.9)" fill="#7d666b"/></g><path d="M234.017,117.2v44.989H120.371V123.343L117.3,117.2Z" transform="translate(-117.3 -93.17)" fill="#d1cfcf"/><rect width="113.646" height="2.529" transform="translate(3.071 33.425)" fill="#7d666b"/><rect width="113.646" height="3.072" transform="translate(3.071 30.354)" fill="#7d666b"/><rect width="113.646" height="0.542" transform="translate(3.071 32.883)" fill="#5994db" opacity="0.3"/><rect width="33.425" height="44.989" transform="translate(83.292 24.03)" fill="#e8e8e8"/><rect width="33.425" height="2.529" transform="translate(83.292 33.425)" fill="#7d666b"/><rect width="33.425" height="3.072" transform="translate(83.292 30.354)" fill="#7d666b"/><g transform="translate(93.41 40.472)"><path d="M169,149.607V134.25c0-5.059,5.059-7.95,5.059-7.95s5.059,2.891,5.059,7.95v15.358Z" transform="translate(-169 -126.3)" fill="#7d666b"/><path d="M171.8,126.3s5.059,2.891,5.059,7.95v15.358h-1.445V134.25A11.262,11.262,0,0,0,171.8,126.3Z" transform="translate(-166.741 -126.3)" fill="#a289b1" opacity="0.3"/></g><g transform="translate(8.311 44.085)"><path d="M156.5,144.38V133.72c0-3.433,3.433-5.42,3.433-5.42s3.433,1.987,3.433,5.42v10.66Z" transform="translate(-93.986 -128.3)" fill="#7d666b"/><path d="M149.6,144.38V133.72c0-3.433,3.433-5.42,3.433-5.42s3.433,1.987,3.433,5.42v10.66Z" transform="translate(-99.553 -128.3)" fill="#7d666b"/><path d="M142.6,144.38V133.72c0-3.433,3.433-5.42,3.433-5.42s3.433,1.987,3.433,5.42v10.66Z" transform="translate(-105.2 -128.3)" fill="#7d666b"/><path d="M135.7,144.38V133.72c0-3.433,3.433-5.42,3.433-5.42s3.433,1.987,3.433,5.42v10.66Z" transform="translate(-110.767 -128.3)" fill="#7d666b"/><path d="M128.8,144.38V133.72c0-3.433,3.433-5.42,3.433-5.42s3.433,1.987,3.433,5.42v10.66Z" transform="translate(-116.333 -128.3)" fill="#7d666b"/><path d="M121.9,144.38V133.72c0-3.433,3.433-5.42,3.433-5.42s3.433,1.987,3.433,5.42v10.66Z" transform="translate(-121.9 -128.3)" fill="#a289b1"/></g><path d="M234.017,117.2v1.084H117.842L117.3,117.2Z" transform="translate(-117.3 -93.17)" fill="#f6fbff"/><rect width="33.425" height="0.542" transform="translate(83.292 32.883)" fill="#6babdb" opacity="0.3"/></g><path d="M171.315,95.286c-1.987-1.445-3.252-2.529-3.252-2.529l-1.084-1.807-.723-7.769V83h0l-.723,7.769-1.084,1.807s-1.265.9-3.252,2.349a26.044,26.044,0,0,0-20.6,25.656h50.77A25.617,25.617,0,0,0,171.315,95.286Z" transform="translate(62.405 -37.978)" fill="url(#d)"/></g></g><g transform="translate(39.549 118.662)"><rect width="22.404" height="21.862" transform="translate(3.072 31.438)" fill="#f6fbff"/><rect width="26.559" height="86.002" transform="translate(1.084 50.77)" fill="#fff"/><rect width="13.189" height="86.002" transform="translate(14.273 50.77)" fill="#d1cfcf"/><rect width="5.782" height="5.782" transform="translate(4.878 57.275)" fill="#7d666b"/><rect width="5.782" height="5.782" transform="translate(4.878 66.489)" fill="#7d666b"/><rect width="5.782" height="5.782" transform="translate(4.878 75.884)" fill="#7d666b"/><rect width="5.782" height="5.782" transform="translate(4.878 85.099)" fill="#7d666b"/><rect width="5.782" height="5.782" transform="translate(18.248 57.275)" fill="#7d666b"/><rect width="5.782" height="5.782" transform="translate(18.248 66.489)" fill="#7d666b"/><rect width="5.782" height="5.782" transform="translate(18.248 75.884)" fill="#7d666b"/><rect width="5.782" height="5.782" transform="translate(18.248 85.099)" fill="#7d666b"/><g transform="translate(4.517 35.051)"><path d="M42.059,110.589V100.11a2.884,2.884,0,0,0-2.529-2.71A2.884,2.884,0,0,0,37,100.11v10.479Z" transform="translate(-37 -97.4)" fill="#7d666b"/><path d="M46.14,110.589V100.11A2.884,2.884,0,0,0,43.61,97.4a3.068,3.068,0,0,0-2.71,2.71v10.479Z" transform="translate(-33.854 -97.4)" fill="#7d666b"/><path d="M50.159,110.589V100.11a2.884,2.884,0,0,0-2.529-2.71,2.884,2.884,0,0,0-2.529,2.71v10.479Z" transform="translate(-30.465 -97.4)" fill="#7d666b"/></g><g transform="translate(1.532)"><path d="M60.014,103.648S64.17,89.736,48.632,85.4H47.367a16.787,16.787,0,0,0-10.3,7.227c-2.891,4.336-1.265,11.2-1.265,11.2H60.014Z" transform="translate(-35.348 -72.03)" fill="url(#e)"/><path d="M41.7,88.3c0,.723,1.084,1.084,1.084,1.084v.9a5.49,5.49,0,0,0-.9,1.265h2.349a5.49,5.49,0,0,0-.9-1.265v-.9s.9-.361.9-1.084a1.422,1.422,0,0,0-.9-1.265V84.866a.964.964,0,0,0,.723-.9c0-.542-.361-.723-.723-.9V80.529L43.145,78h0l-.361,2.529v2.529c-.181.181-.723.361-.723.9s.723.9.723.9v2.168C42.423,87.215,41.7,87.4,41.7,88.3Z" transform="translate(-30.223 -78)" fill="url(#f)"/></g><rect width="26.017" height="0.723" transform="translate(1.084 31.257)" fill="#7d666b"/><rect width="28.547" height="0.903" transform="translate(0 50.77)" fill="#7d666b"/></g><g transform="translate(200.532 61.026)"><path d="M147.63,73.021A16.422,16.422,0,0,1,134.983,46.1,17.723,17.723,0,0,0,123.6,62.722a17.863,17.863,0,0,0,34.509,6.5A16.543,16.543,0,0,1,147.63,73.021Z" transform="translate(-123.6 -46.1)" fill="url(#g)"/><path d="M138.2,49.6l1.626,3.794,3.975.361-3.071,2.529.9,3.975L138.2,58.272l-3.433,1.987.9-3.975L132.6,53.756l3.975-.361Z" transform="translate(-116.339 -43.276)" fill="url(#h)"/></g><g transform="translate(70.625 113.603)" opacity="0.4"><path d="M80.366,126.41a.479.479,0,0,0,.542.542h4.336a5.044,5.044,0,0,0,3.252-1.084,2.913,2.913,0,0,0,1.084-2.349,2.435,2.435,0,0,0-2.349-2.529.542.542,0,0,0,0,1.084,1.28,1.28,0,0,1,1.265,1.445,1.643,1.643,0,0,1-.723,1.445,3.332,3.332,0,0,1-2.349.723H80.908C80.547,125.868,80.366,126.048,80.366,126.41Zm-2.71-5.962a.361.361,0,1,0,0-.723H75.849a.361.361,0,1,0,0,.723ZM52,120.809a.479.479,0,0,0,.542.542H56.7a.479.479,0,0,0,.542-.542,2.47,2.47,0,0,1,2.529-2.529,2.052,2.052,0,0,1,1.445.542.339.339,0,0,0,.542,0,.389.389,0,0,0,.361-.361,3.569,3.569,0,0,1,3.252-2.168h.181c.181,0,.361,0,.361-.181.181-.181.181-.181.181-.361a6.868,6.868,0,0,1,13.731,0c0,.181.181.361.181.542a.664.664,0,0,0,.542.181c.361,0,.542-.181.9-.181a3.523,3.523,0,0,1,3.433,3.252h-5.24a.361.361,0,1,0,0,.723h5.962a.389.389,0,0,0,.361-.361h0v-.181a4.783,4.783,0,0,0-4.7-4.7h-.361a8.17,8.17,0,0,0-7.95-7.227,7.893,7.893,0,0,0-7.95,7.227A4.792,4.792,0,0,0,61.4,117.2a5.275,5.275,0,0,0-1.626-.361,3.7,3.7,0,0,0-3.614,3.071H52.542C52.181,120.267,52,120.447,52,120.809Z" transform="translate(-51.458 -48.899)" fill="#fff"/><path d="M156.666,95.11a.479.479,0,0,0,.542.542h4.336a5.044,5.044,0,0,0,3.252-1.084,2.913,2.913,0,0,0,1.084-2.349,2.435,2.435,0,0,0-2.349-2.529.542.542,0,1,0,0,1.084,1.28,1.28,0,0,1,1.265,1.445,1.643,1.643,0,0,1-.723,1.445,3.332,3.332,0,0,1-2.349.723h-4.336C157.028,94.568,156.666,94.748,156.666,95.11Zm-2.71-5.962a.361.361,0,1,0,0-.723h-1.807a.361.361,0,0,0,0,.723Zm-25.656.361a.479.479,0,0,0,.542.542H133a.479.479,0,0,0,.542-.542,2.47,2.47,0,0,1,2.529-2.529,2.052,2.052,0,0,1,1.445.542.339.339,0,0,0,.542,0,.389.389,0,0,0,.361-.361,3.569,3.569,0,0,1,3.252-2.168h.181c.181,0,.361,0,.361-.181.181-.181.181-.181.181-.361a6.868,6.868,0,0,1,13.731,0c0,.181.181.361.181.542a.664.664,0,0,0,.542.181c.361,0,.542-.181.9-.181a3.523,3.523,0,0,1,3.433,3.252h-5.24a.361.361,0,1,0,0,.723h5.962a.389.389,0,0,0,.361-.361h0v-.181a4.783,4.783,0,0,0-4.7-4.7h-.361a8.17,8.17,0,0,0-7.95-7.227,7.893,7.893,0,0,0-7.95,7.227A4.792,4.792,0,0,0,137.7,85.9a5.275,5.275,0,0,0-1.626-.361,3.7,3.7,0,0,0-3.614,3.071h-3.614C128.661,88.967,128.3,89.147,128.3,89.509Z" transform="translate(10.098 -74.151)" fill="#fff"/><g transform="translate(0 38.123)"><path d="M52.242,97.384h7.95a.542.542,0,0,0,0-1.084h-7.95a.542.542,0,0,0,0,1.084Z" transform="translate(-51.7 -96.3)" fill="#fff"/><g transform="translate(10.66)"><path d="M58.142,97.384h1.807a.542.542,0,0,0,0-1.084H58.142a.479.479,0,0,0-.542.542.577.577,0,0,0,.542.542Z" transform="translate(-57.6 -96.3)" fill="#fff"/></g></g><g transform="translate(176.473 3.252)"><path d="M149.963,78.084h7.95a.542.542,0,1,0,0-1.084h-7.95a.479.479,0,0,0-.542.542c-.181.361.181.542.542.542Z" transform="translate(-149.373 -77)" fill="#fff"/><g transform="translate(10.708)"><path d="M155.842,78.084h1.807a.542.542,0,1,0,0-1.084h-1.807a.542.542,0,0,0,0,1.084Z" transform="translate(-155.3 -77)" fill="#fff"/></g></g><g transform="translate(21.681 46.253)"><path d="M64.242,101.884h7.95a.542.542,0,0,0,0-1.084h-7.95a.479.479,0,0,0-.542.542.577.577,0,0,0,.542.542Z" transform="translate(-63.7 -100.8)" fill="#fff"/></g><g transform="translate(149.962 31.076)"><path d="M135.242,93.484h7.95a.542.542,0,0,0,0-1.084h-7.95a.542.542,0,1,0,0,1.084Z" transform="translate(-134.7 -92.4)" fill="#fff"/></g><g transform="translate(3.614 89.616)"><path d="M54.242,125.884h7.95a.542.542,0,0,0,0-1.084h-7.95a.542.542,0,0,0,0,1.084Z" transform="translate(-53.7 -124.8)" fill="#fff"/></g><g transform="translate(52.396)"><path d="M81.242,76.284h7.95a.542.542,0,0,0,0-1.084h-7.95a.479.479,0,0,0-.542.542.577.577,0,0,0,.542.542Z" transform="translate(-80.7 -75.2)" fill="#fff"/></g></g><g transform="translate(81.285 27.599)"><path d="M127.522,120.9H93.374c-13.912,0-30.173,6.143-33.245,33.967-.361,3.975-2.529,33.967-2.529,33.967H86.689l8.492-34.148h20.778L127.7,121.623C127.7,121.442,130.593,120.9,127.522,120.9Z" transform="translate(-57.6 47.674)" fill="url(#i)"/><path d="M147.223,78.253,127.168,69.4l-21.862,8.311s-4.878.723-10.841,6.143C90.31,87.648,87.6,90.72,87.6,90.72s20.055,47.157,15.719,71.729l59.623,9.215s2.529-24.933-.9-45.531C158.787,105.535,147.223,78.253,147.223,78.253Z" transform="translate(-33.397 6.125)" fill="url(#j)"/><path d="M98.378,81.2S78.685,104.146,74.71,132.693C72,147.87,81.575,155.82,89.164,155.82c11.383,0,21.862-16.622,26.017-23.127C119.337,126.008,98.378,81.2,98.378,81.2Z" transform="translate(-44.175 15.645)" fill="url(#k)"/><path d="M84,93.3a97.565,97.565,0,0,0-9.4,28.186c1.265,3.072,3.794,7.227,8.853,7.408,7.769.361,11.2-2.891,11.2-2.891s6.5.361,8.492-.181c1.987-.723,5.782-1.807,5.782-1.807L112.9,126c.723-1.084,1.445-2.168,1.987-3.072,1.807-2.891-1.084-12.647-4.878-22.946L84.357,93.3Z" transform="translate(-43.885 25.407)" fill="#aaa6a3" opacity="0.3"/><path d="M95.055,113.4a13.032,13.032,0,0,1-12.105,3.433C75.361,115.2,75,104,75,104Z" transform="translate(-43.562 34.039)" fill="url(#l)"/><path d="M146.378,88.9s-1.445,14.635-2.529,19.513-2.349,4.336-7.227,3.794-37.942-6.324-37.942-6.324l-.361,2.168s-3.794-7.408-10.118-7.408c1.987,3.975,4.878,11.744,4.878,11.744l51.674,8.13,3.072-3.072Z" transform="translate(-32.913 21.857)" fill="#aaa6a3" opacity="0.3"/><path d="M155.9,117.588,96.1,110v.361c2.529,1.445,11.563,6.866,18.068,9.937,4.878,2.349,23.307,11.563,35.955,17.706l6.143.9s.9-8.672.9-20.055Z" transform="translate(-26.539 38.88)" fill="#aaa6a3" opacity="0.5"/><path d="M121.037,69.3,99.175,77.792A12.179,12.179,0,0,0,95.2,79.237a17.375,17.375,0,0,0,8.311,2.349c-.181,3.252-.361,14.815,2.349,32.522l3.433-.542c-2.891-18.068-2.529-29.631-2.349-32.16a12.08,12.08,0,0,0,3.433-.9c8.13-2.71,12.286-7.227,13.912-9.757Z" transform="translate(-27.266 6.044)" opacity="0.7" fill="url(#m)"/><path d="M98.873,95.415,129.046,86.2l8.672,35.232L106.642,129.2H100.5L79,119.445,68.7,87.1l22.585,8.672Z" transform="translate(-48.645 19.679)" fill="#7c4b7f"/><path d="M97.517,97.569l-7.046.542S77.824,93.233,71.5,90.884c2.71,8.492,5.962,18.79,6.866,21.5,3.433,1.445,17.345,8.13,18.971,8.673h6.324c.9-.181,18.61-4.7,25.656-6.324-1.445-6.143-4.7-18.61-6.143-24.933C115.946,91.968,97.517,97.569,97.517,97.569Z" transform="translate(-46.386 22.583)" fill="#7c4b7f"/><path d="M90.236,96.986l7.588-.361,28-8.492-5.42-3.433L96.2,91.566h-5.24L74.7,85.423,70,89.217Z" transform="translate(-47.596 18.469)" fill="#ebdebf"/><path d="M94.568,93.5A10.455,10.455,0,0,0,93.3,97.3v.542a2.883,2.883,0,0,0,1.265,1.626,5.482,5.482,0,0,0-2.168,4.517,5,5,0,0,0,.181,1.626,6.089,6.089,0,0,0,4.878,4.156,2.568,2.568,0,0,0-.361,1.084,1.629,1.629,0,0,0,.181.9c.361,1.084,1.987,2.168,3.252,3.072l.9.542.542-.9a10.408,10.408,0,0,0,1.265-3.794v-.542a2.883,2.883,0,0,0-1.265-1.626,5.482,5.482,0,0,0,2.168-4.517,5,5,0,0,0-.181-1.626A6.089,6.089,0,0,0,99.085,98.2a2.568,2.568,0,0,0,.361-1.084,1.629,1.629,0,0,0-.181-.9c-.361-1.265-2.349-2.529-3.252-3.072l-.9-.542Zm3.072,15.9v0Z" transform="translate(-29.524 24.842)" fill="#7c4b7f"/><path d="M101.824,109.661a1.91,1.91,0,0,0-1.084-1.265c-.181,0-.361-.361-.361-.542s.181-.542.361-.542A4.787,4.787,0,0,0,98.21,98.64c-.181,0-.361-.181-.542-.361s-.181-.361,0-.723a1.756,1.756,0,0,0,.181-1.626c-.181-.723-1.626-1.807-2.891-2.529-.542,1.265-1.265,2.891-1.084,3.614a2.429,2.429,0,0,0,1.084,1.265c.181.181.361.361.361.542s-.181.361-.361.542a5.012,5.012,0,0,0-1.987,5.24,4.612,4.612,0,0,0,4.336,3.433c.181,0,.361.181.542.361v.542a1.756,1.756,0,0,0-.181,1.626c.181.723,1.626,1.807,2.71,2.529C101.281,111.829,102,110.2,101.824,109.661Z" transform="translate(-29.191 25.488)" fill="#edbd2f"/><path d="M77.733,93.381c-.9.542-1.807,1.445-1.807,2.349v.361h0c0,.361.361.542.723.9a3.442,3.442,0,0,0-1.807.9,2.914,2.914,0,0,0-.542,1.626,1.964,1.964,0,0,0,.181.9c.361,1.626,2.168,3.433,4.336,4.7a1.086,1.086,0,0,0-.181.723v.542c0,.181.181.9,2.891,3.252l.542.542.542-.361c.542-.361,1.987-1.265,1.987-2.349v-.361c0-.361-.361-.542-.723-.9a2.433,2.433,0,0,0,1.626-.9,2.914,2.914,0,0,0,.542-1.626,1.086,1.086,0,0,0-.181-.723c-.361-1.626-2.168-3.433-4.156-4.7a1.086,1.086,0,0,0,.181-.723v-.542c-.181-.9-1.626-2.349-2.891-3.252l-.542-.542Zm4.7,12.828Z" transform="translate(-44.127 25.326)" fill="#7c4b7f"/><path d="M82.885,106.709a2.767,2.767,0,0,0-.9-1.265c-.181-.181-.361-.361-.361-.542s.181-.181.361-.181c1.807,0,2.71-.9,2.349-2.349a7.343,7.343,0,0,0-3.975-4.156c-.181-.181-.361-.361-.542-.361-.181-.181,0-.361.181-.361a.66.66,0,0,0,.361-.9A14.712,14.712,0,0,0,77.826,93.7c-.723.542-1.626,1.084-1.445,1.626a2.766,2.766,0,0,0,.9,1.265c.181.181.361.361.361.542s-.181.181-.361.181c-1.807,0-2.71.9-2.349,2.349s1.987,3.072,3.975,4.156l.542.542v.361a.66.66,0,0,0-.361.9,14.712,14.712,0,0,0,2.529,2.891C82.162,107.973,83.066,107.251,82.885,106.709Z" transform="translate(-43.678 25.73)" fill="#edbd2f"/><path d="M88.788,91.3l.9,5.059,6.866,28.728H90.415L82.645,96.9,81.2,91.661Z" transform="translate(-38.56 23.793)" fill="#7c4b7f" opacity="0.2"/><g transform="translate(25.837 105.337)" opacity="0.8"><path d="M119.6,85.9,95.207,92.766l-6.866-.181-16.08-5.962c-.181,0-.181,0-.361.181,0,.181,0,.181.181.361l16.08,5.962,7.046.181L119.6,86.442a.177.177,0,0,0,.181-.181C119.779,85.9,119.779,85.9,119.6,85.9Z" transform="translate(-71.9 -85.9)" fill="#ebdebf"/></g><path d="M104.814,111.14l-6.143-1.626s-11.2,4.878-18.971-3.614c9.4,1.445,15.538,0,15.538,0h5.782c.181,0,5.782,2.529,5.782,2.529Z" transform="translate(-39.77 35.572)" fill="#7c4b7f" opacity="0.2"/><path d="M110.732,106.588s-3.071-.723-5.42-1.445h0a14.168,14.168,0,0,0-1.626-4.336c-2.71-4.517-5.782-5.42-7.227-5.782-2.349-.542-2.529,3.072-.181,4.517a7.028,7.028,0,0,1,1.987,1.626,46.6,46.6,0,0,1-9.215-3.433c-4.878-2.349-7.046-1.807-7.588-.9a2.583,2.583,0,0,0,.361,2.349c-2.891-1.626-5.24-.9-5.782.542-.542,1.807,1.445,3.433,1.445,3.433s-.542-.181-1.084.542c-.9,1.626,2.891,5.782,2.891,5.782l-.542.361c-.9.723.723,4.336,9.034,7.588a17.265,17.265,0,0,0,13.551-.542c1.987.361,7.046,1.807,7.046,1.807Z" transform="translate(-42.797 26.754)" fill="url(#n)"/><g transform="translate(34.248 125.618)" opacity="0.3"><g transform="translate(0 3.749)"><path d="M76.636,99.381a.25.25,0,0,0,0,.361s6.685,5.059,11.383,6.685c.181,0,.361,0,.361-.181s0-.361-.181-.361C83.5,104.259,77,99.381,77,99.2,77,99.381,76.636,99.381,76.636,99.381Z" transform="translate(-76.556 -99.2)" fill="#d97063"/></g><g transform="translate(1.932 10.253)"><path d="M77.761,102.981c-.181.181-.181.361,0,.361a23.821,23.821,0,0,0,9.034,5.059c.181,0,.361,0,.361-.181s0-.361-.181-.361a22.4,22.4,0,0,1-8.853-5.059Z" transform="translate(-77.625 -102.8)" fill="#d97063"/></g><g transform="translate(4.336)"><path d="M79.036,97.26a.25.25,0,0,0,0,.361,46.905,46.905,0,0,0,8.492,4.7c.181,0,.361,0,.361-.181s0-.361-.181-.361A62.531,62.531,0,0,1,79.4,97.26C79.4,97.08,79.217,97.08,79.036,97.26Z" transform="translate(-78.956 -97.125)" fill="#d97063"/></g></g><path d="M142.705,74.3l-.361,53.661-45.892-7.227-3.252,16.8s42.82,16.261,52.758,18.971c9.937,2.529,20.6-4.156,21.681-18.248s-5.42-49.505-11.563-55.648C152.281,78.636,147.042,76.107,142.705,74.3Z" transform="translate(-28.879 10.078)" fill="url(#o)"/><path d="M129.7,120.3Z" transform="translate(0.568 47.19)" fill="#fff" opacity="0.7"/><path d="M110.629,69.3,108.1,70.384h0Z" transform="translate(-16.858 6.044)" opacity="0.7" fill="url(#p)"/><path d="M141.857,85.638c-3.614-3.614-8.853-6.143-13.37-8.13L111.865,70.1a17.5,17.5,0,0,0-1.265,1.626c7.408,3.252,19.332,8.492,24.211,11.383,7.408,4.336,9.4,9.576,11.925,20.959s6.866,25.114,5.24,39.749a57.535,57.535,0,0,1-1.084,6.685,26.393,26.393,0,0,0,2.529-9.215C154.5,127.194,148,91.781,141.857,85.638Z" transform="translate(-14.841 6.69)" opacity="0.7" fill="url(#q)"/><g transform="translate(14.81)"><path d="M117.255,61.8l2.168,13.551S109.847,88,97.561,83.662L97.2,81.674Z" transform="translate(-40.462 -0.006)" fill="url(#r)"/><path d="M83.841,58.525s-2.891-.9-4.878.542-1.626,5.6,1.084,9.4c2.529,3.794,6.866,4.7,9.576,3.433C92.153,70.63,83.841,58.525,83.841,58.525Z" transform="translate(-56.193 -2.874)" fill="url(#s)"/><path d="M82,75.876s10.118,31.076,30.715,25.475c16.622-4.517,19.874-21.862,19.874-21.862s9.757-2.529,8.13-10.841c-1.445-8.311-10.66-9.4-11.925.181a25.017,25.017,0,0,0-.723-11.2c-1.987-6.143-6.143-24.211-30.534-17.706C69.9,47.51,80.2,71,82,75.876Z" transform="translate(-55.439 -18.78)" fill="url(#t)"/><path d="M78.959,63.162A23.93,23.93,0,0,1,79.5,52.5l4.7-1.987L115.636,41.3l8.672,4.7a24.965,24.965,0,0,1,2.349,5.059L128.464,61.9c-2.529-6.685-7.046-7.588-10.118-9.4a9.071,9.071,0,0,1-3.794-5.6C103.17,59.187,83.657,62.439,78.959,63.162Z" transform="translate(-55.466 -16.545)" fill="#f0b896" opacity="0.4"/><path d="M138.976,79.094s-1.445-9.215-3.614-11.925-8.311-5.782-8.311-12.105c-6.685,2.891-21.681,18.429-45.711,15.358C70.139,68.434,65.622,60.846,65.8,50c5.42,3.433,11.925,2.71,16.08-3.975,5.059-7.95,14.093-18.61,28-18.429,12.647.181,24.391,5.962,26.2,13.551C144.4,42.6,152.708,51.992,149.094,72.77c0,0-3.433-3.433-6.685-1.084C141.325,72.409,139.338,74.758,138.976,79.094Z" transform="translate(-65.797 -27.599)" fill="url(#u)"/></g><path d="M102.628,66.555c.542,2.71-1.987,5.6-5.6,6.143s-6.866-1.084-7.227-3.975A18.844,18.844,0,0,1,102.628,66.555Z" transform="translate(-31.622 3.55)" fill="#fff"/><path d="M94.418,153.134,105.259,122.6c-1.987,1.084-5.962,4.156-10.841,11.925-4.336,7.227-7.95,14.454-10.118,18.61Z" transform="translate(-36.059 49.045)" opacity="0.3" fill="url(#v)"/><path d="M165.685,132.5c-31.438-15-42.64-17.887-56.19-11.021-13.009,6.685-18.068,41.917-18.068,41.917L84.2,208.561A75.442,75.442,0,0,0,124.13,177.3c1.265-1.987,2.529-3.975,3.794-5.782l2.349-14.454h22.4C165.143,157.068,165.685,132.5,165.685,132.5Z" transform="translate(-36.14 45.292)" fill="url(#w)"/><path d="M111.165,136l-1.265,6.5h4.878C111.707,141.782,111.165,136,111.165,136Z" transform="translate(-15.406 59.856)" fill="url(#x)"/><path d="M78.4,142.646l1.626-7.046s-.181,6.5,1.807,7.046Z" transform="translate(-40.819 59.533)" fill="url(#y)"/></g><g transform="translate(30.696 214.963)"><path d="M54.172,178.457l-10.479-.181a74.087,74.087,0,0,1-11.925-26.921l8.13-.542-8.853-3.071A92.806,92.806,0,0,1,29.6,131.3a88.663,88.663,0,0,1,29.27,8.853l.723,6.866,1.445-5.782a55.772,55.772,0,0,1,23.127,23.488l-2.71,11.2,4.878-7.227a54.662,54.662,0,0,1,3.794,15.358c.361,11.021,0,17.706,0,17.706H73.143s-14.815-5.42-27.1-20.778Z" transform="translate(-29.6 -131.3)" fill="url(#z)"/><path d="M61.236,180.1a38.427,38.427,0,0,1,5.42-16.261l2.529,5.24-.723-7.588a44.187,44.187,0,0,1,18.971-14.454l.542,4.7,1.265-5.42a60.738,60.738,0,0,1,15-3.614,61.8,61.8,0,0,1-3.614,21.32l-4.336,1.445,3.614.361a49.721,49.721,0,0,1-13.009,18.429L78.4,184.8l5.42,1.987a40.637,40.637,0,0,1-10.479,6.143H61.236C61.236,192.747,61.055,187.869,61.236,180.1Z" transform="translate(-4.142 -122.103)" fill="url(#aa)"/><path d="M90.324,153.411c2.71-2.529,8.13-8.311,8.13-8.311a101.454,101.454,0,0,0-9.215,6.866c-21.862,20.778-26.559,37.761-26.74,38.665l.9.181h.9C65.029,188.643,70.269,172.563,90.324,153.411Z" transform="translate(-3.057 -120.167)" fill="#fff" opacity="0.25"/><path d="M81.725,199.686h1.987c-1.626-5.6-11.744-35.774-42.64-60.346A82.284,82.284,0,0,0,32.4,134.1s4.878,4.517,7.227,6.5C69.258,164.092,79.557,193,81.725,199.686Z" transform="translate(-27.341 -129.041)" fill="#fff" opacity="0.21"/></g></g></svg>