<svg xmlns="http://www.w3.org/2000/svg" xmlns:xlink="http://www.w3.org/1999/xlink" width="472.628" height="460.233" viewBox="0 0 472.628 460.233"><defs><linearGradient id="a" x1="-4.519" y1="-0.151" x2="-3.663" y2="-1.268" gradientUnits="objectBoundingBox"><stop offset="0" stop-color="#30944c"/><stop offset="0.41" stop-color="#8abb62"/><stop offset="0.816" stop-color="#dedf77"/><stop offset="1" stop-color="#ffed7f"/></linearGradient><linearGradient id="b" x1="-5.381" y1="-0.334" x2="-3.55" y2="-0.461" xlink:href="#a"/><linearGradient id="c" x1="-7.87" y1="-0.123" x2="-6.389" y2="-1.082" xlink:href="#a"/><linearGradient id="d" x1="0.519" y1="-0.647" x2="0.493" y2="1.156" gradientUnits="objectBoundingBox"><stop offset="0" stop-color="#e3cbba"/><stop offset="0.253" stop-color="#dbbaa2"/><stop offset="0.784" stop-color="#c88f65"/><stop offset="1" stop-color="#bf7c4a"/></linearGradient><linearGradient id="e" x1="0.508" y1="-0.464" x2="0.489" y2="1.418" gradientUnits="objectBoundingBox"><stop offset="0" stop-color="gray"/><stop offset="0.639" stop-color="#52524d"/><stop offset="1" stop-color="#3c3c35"/></linearGradient><linearGradient id="f" x1="0.969" y1="0.508" x2="0.071" y2="0.481" gradientUnits="objectBoundingBox"><stop offset="0.003" stop-color="#fff"/><stop offset="0.367" stop-color="#f2f2ff"/><stop offset="1" stop-color="#d2d2ff"/></linearGradient><linearGradient id="g" x1="-1.08" y1="0.51" x2="2.899" y2="0.485" xlink:href="#f"/><linearGradient id="h" x1="2.326" y1="0.537" x2="-3.183" y2="0.425" xlink:href="#f"/><linearGradient id="i" x1="0.502" y1="-1.881" x2="0.499" y2="1.312" xlink:href="#f"/><linearGradient id="j" x1="-0.261" y1="0.487" x2="3.125" y2="0.544" xlink:href="#f"/><linearGradient id="k" x1="-0.004" y1="0.5" x2="0.995" y2="0.5" gradientUnits="objectBoundingBox"><stop offset="0" stop-color="#ffecdc"/><stop offset="0.238" stop-color="#f6dac4"/><stop offset="0.737" stop-color="#e0ad87"/><stop offset="1" stop-color="#d39364"/></linearGradient><linearGradient id="l" x1="0" y1="0.5" x2="1" y2="0.5" xlink:href="#k"/><linearGradient id="m" x1="-0.002" y1="0.503" x2="1" y2="0.503" xlink:href="#e"/><linearGradient id="n" x1="-0.001" y1="0.502" x2="1" y2="0.502" xlink:href="#e"/><linearGradient id="o" x1="2.36" y1="-0.937" x2="-0.436" y2="1.292" xlink:href="#e"/><linearGradient id="p" x1="1.707" y1="-0.809" x2="0.242" y2="1.186" gradientUnits="objectBoundingBox"><stop offset="0" stop-color="#b7b4b1"/><stop offset="0.546" stop-color="#959390"/><stop offset="1" stop-color="#7d7b79"/></linearGradient><linearGradient id="q" x1="1.486" y1="-0.019" x2="-0.051" y2="0.947" xlink:href="#k"/><linearGradient id="r" x1="2.049" y1="-1.747" x2="-0.156" y2="1.294" xlink:href="#p"/><linearGradient id="s" x1="-16.853" y1="0.19" x2="-14.646" y2="0.972" xlink:href="#k"/><linearGradient id="t" x1="1.939" y1="-0.37" x2="-1.626" y2="1.696" xlink:href="#e"/><linearGradient id="u" x1="0.278" x2="1.158" y2="1.977" gradientUnits="objectBoundingBox"><stop offset="0" stop-color="#ffd571"/><stop offset="0.251" stop-color="#ffbd60"/><stop offset="0.778" stop-color="#ff8035"/><stop offset="1" stop-color="#ff6421"/></linearGradient><linearGradient id="v" x1="0.277" y1="0" x2="1.158" y2="1.978" xlink:href="#u"/><linearGradient id="w" x1="0.277" y1="-0.001" x2="1.158" y2="1.976" xlink:href="#u"/><linearGradient id="x" x1="-26.489" y1="0.001" x2="-25.609" y2="1.978" xlink:href="#u"/><linearGradient id="y" x1="-39.392" y1="0.005" x2="-38.515" y2="1.975" xlink:href="#u"/><linearGradient id="z" x1="-48.637" y1="0" x2="-47.756" y2="1.976" xlink:href="#u"/></defs><g transform="translate(-2260.309 15431.035)"><g transform="translate(2260.309 -15431.035)"><ellipse cx="231.543" cy="84.024" rx="231.543" ry="84.024" transform="translate(0 292.185)" opacity="0.1"/><g transform="translate(136.105)"><g transform="translate(72.069)"><path d="M1660.5,432.213s95.43-36.119,119.421-95.469C1809.314,263.936,1800,222,1800,222S1651.834,245.306,1660.5,432.213Z" transform="translate(-1660.137 -221.962)" fill="url(#a)"/><path d="M1787.753,268.094l-2.4.114-25.131,1.179c25.017-34.294,39.959-47.487,39.959-47.487-15.056,11.862-29.427,26.614-42.849,42.659l.342-18.136-5.4,24.295c-6.045,7.49-11.862,15.208-17.451,23.04l4.03-28.021-8.517,34.408c-4.486,6.463-8.821,13-12.965,19.466l2.547-39.579-8.707,49.35c-5.589,9.049-10.8,17.907-15.55,26.348l-2.509-31.481-4.6,44.331c-4.714,8.707-8.9,16.767-12.509,23.915l1.635-36.119-8.859,47.753c-4.448,10.494-8.326,22.2-8.326,22.2l.228,5.855,7.642-3.156c2.814-8.364,5.171-15.018,9.011-22.546l33.61-19.048-27.412,8.326q6.045-11.577,11.862-22.242l43-15.93-37.488,5.893q8.327-14.885,16.083-27.983l40.339-13.383-35.359,5.057q6.9-11.349,13.269-21.253l40.8-16.767-34.75,7.528c5.627-8.478,10.912-16.12,15.816-23Z" transform="translate(-1660.362 -221.9)" fill="#149173"/></g><g transform="translate(0 7.148)"><path d="M1550.545,444.564s-70.831-50.6-77.637-104.821c-8.365-66.459,8.516-99.042,8.516-99.042S1598.488,292.293,1550.545,444.564Z" transform="translate(-1470.581 -240.7)" fill="url(#b)"/><path d="M1499.29,281.5l1.939.608,20.455,6.463C1508.529,254.805,1499.1,240.7,1499.1,240.7c9.809,13.079,18.478,28.363,26.044,44.522l3.688-15.018-.875,21.215c3.346,7.49,6.463,15.132,9.353,22.812l2.814-23.991-.494,30.226c2.281,6.311,4.448,12.623,6.425,18.858l6.54-33.192-3.612,42.582c2.623,8.669,4.981,17.109,7.072,25.131l8.973-25.435-5.893,37.564c1.977,8.212,3.688,15.778,5.095,22.432l6.539-30.15-3.118,41.29c1.407,9.619,2.015,20.151,2.015,20.151l-1.445,4.791-5.627-4.258a132.866,132.866,0,0,0-2.509-20.569l-23.573-23.078,20.8,12.851c-1.635-7.262-3.27-14.22-4.943-20.949l-31.975-22.508,29.618,13.041q-3.593-14.086-7.148-26.576l-30.34-19.847,28.059,11.9q-3.194-10.836-6.311-20.417l-30-22.736,27.032,13.8c-2.776-8.212-5.475-15.664-8.022-22.394Z" transform="translate(-1488.257 -240.7)" fill="#149173"/></g><g transform="translate(53.217 23.078)"><path d="M1634.1,469.773s-35.473-67.714-19.352-112.92c19.771-55.4,45.89-74.253,45.89-74.253S1732.006,369.4,1634.1,469.773Z" transform="translate(-1610.551 -282.6)" fill="url(#c)"/><path d="M1672.557,314.713l1.293,1.255,13.459,13.193c3.042-31.671,1.255-46.461,1.255-46.461,2.509,14.143,3.232,29.542,2.775,45.206l8.859-10.341-9.087,16.273c-.342,7.186-.95,14.448-1.711,21.6l11.71-17.679-12.356,23.5c-.722,5.855-1.521,11.672-2.433,17.337l18.288-23.42-19.694,31.975c-1.369,7.832-2.852,15.4-4.41,22.508l17.071-16.387-19.5,27.108c-1.673,7.224-3.346,13.839-4.9,19.618l17.071-21.025-18.82,31.138c-2.7,8.1-6.387,16.577-6.387,16.577l-3.042,3.156-2.7-5.551a112.8,112.8,0,0,0,6.159-17.109l-9.353-27.412,11.216,18.288c1.6-6.349,3.08-12.433,4.448-18.364l-16.159-30.3,18.06,21.976c1.863-8.326,3.46-16.2,4.9-23.687l-15.93-27.6,17.261,20.455c1.179-6.5,2.243-12.7,3.156-18.516l-14.486-29.694,15.74,21.519q1.6-11.292,2.585-20.759Z" transform="translate(-1638.472 -282.662)" fill="#149173"/></g></g><g transform="translate(61.136 84.671)"><g transform="translate(0 34.028)"><path d="M1905.749,1029.6l57.258,25.245,1.14,66.915-139.648-58.7Z" transform="translate(-1614.971 -841.21)" fill="#8c6239"/><path d="M1285.7,1119.652v-69.234l57.524-22.318,85.7,32.849Z" transform="translate(-1281.024 -840.281)" fill="#8c6239"/><path d="M1634.973,676.143,1625.582,534.1l-163.144,58.7-163.145-58.7L1293.4,676.143l167.288,72.162Z" transform="translate(-1285.796 -534.1)" fill="url(#d)"/><path d="M1622.159,697.7l1.027,2.319-5.855-154.932-4.714-9.391,1.179,143.184.532,1.179-165.464,65.128-163.715-66.649,2.319-142.842-7.034,5.855L1273.4,701.2l146.111,54.559-142.005,58.7,12.889,18.782,158.468-65.737,163.182,65.737,10.532-17.6-139.648-58.7,139.648-57.524Z" transform="translate(-1273.4 -535.092)" fill="#a67c52"/></g><g transform="translate(17.603)"><path d="M1319.7,475.93V624.209a2.775,2.775,0,0,0,1.711,2.547l154.552,64.6a3.038,3.038,0,0,0,2.091.038l154.514-61.1a2.765,2.765,0,0,0,1.749-2.585V477.071a2.748,2.748,0,0,0-3.5-2.661l-153.639,41.708a3.257,3.257,0,0,1-1.483,0l-152.461-42.811A2.739,2.739,0,0,0,1319.7,475.93Z" transform="translate(-1319.7 -462.319)" fill="url(#e)"/><path d="M1339.8,462.2V600.711l149.039,62.2,150.255-58.665V462.2l-30.53-17.6-118.547,46.955L1370.292,444.6Z" transform="translate(-1332.158 -444.6)" fill="url(#f)"/><path d="M1370.292,444.6V583.107l-30.492,17.6V462.2Z" transform="translate(-1332.158 -444.6)" fill="url(#g)"/><path d="M2047.308,584.856l29.922,19.39V462.2l-30.53-17.6Z" transform="translate(-1770.294 -444.6)" fill="url(#h)"/><path d="M1370.292,808.9l119.725,46.955L1608.564,808.9l30.53,21.139L1490.017,888.7,1339.8,826.5Z" transform="translate(-1332.158 -670.393)" fill="url(#i)"/><path d="M1539.725,491.555V630.062L1420,583.107V444.6Z" transform="translate(-1381.866 -444.6)" fill="url(#j)"/><g transform="translate(13.649 5.285)"><g opacity="0.05"><path d="M1525.9,644.951l.266-.114.266.114.114-.266,126.987-49.806v-.3l-.608-136.074h-.875l.608,135.77-126.493,49.616L1399.674,594.27l.608-135.77h-.912l-.57,136.074v.3l126.987,49.806Z" transform="translate(-1382.375 -458.5)"/><path d="M1512.513,661.841l.266-.114.266.114.114-.266,135.2-53.342V470.6h-.875V607.662L1512.78,660.776l-134.705-53.114V470.6h-.875V608.233l135.2,53.342Z" transform="translate(-1368.988 -466)"/><path d="M1643.184,483h-.874V621.2l-142.917,56.65L1356.474,621.2V483h-.875V621.811l143.412,56.84.114.266.266-.114.266.114.114-.266,143.412-56.84Z" transform="translate(-1355.6 -473.685)"/></g><g transform="translate(43.704 21.87)"><g transform="translate(0 0)" opacity="0.2"><g transform="translate(0.009 35.211)"><rect width="0.874" height="84.633" transform="translate(0 0.825) rotate(-70.561)"/></g><g transform="translate(0.003 70.421)"><rect width="0.874" height="84.633" transform="translate(0 0.825) rotate(-70.561)"/></g><g transform="translate(0.016)"><rect width="0.874" height="84.633" transform="translate(0 0.825) rotate(-70.561)"/></g><g transform="translate(0.012 17.605)"><rect width="0.874" height="84.633" transform="translate(0 0.825) rotate(-70.561)"/></g><g transform="translate(0.006 52.816)"><rect width="0.874" height="84.633" transform="translate(0 0.825) rotate(-70.561)"/></g><g transform="translate(0 88.026)"><rect width="0.874" height="84.633" transform="translate(0 0.825) rotate(-70.561)"/></g></g><g transform="translate(120.921 1.133)" opacity="0.2"><g transform="translate(0.001 35.207)"><rect width="84.633" height="0.874" transform="translate(0 28.217) rotate(-19.475)"/></g><g transform="translate(0 70.414)"><rect width="84.633" height="0.874" transform="translate(0 28.217) rotate(-19.475)"/></g><g transform="translate(0.001)"><g transform="translate(0.002)"><rect width="84.633" height="0.874" transform="translate(0 28.217) rotate(-19.475)"/></g><g transform="translate(0.001 17.604)"><rect width="84.633" height="0.874" transform="translate(0 28.217) rotate(-19.475)"/></g><g transform="translate(0 52.811)"><rect width="84.633" height="0.874" transform="translate(0 28.217) rotate(-19.475)"/></g><g transform="translate(0.012 88.054)"><rect width="84.633" height="0.874" transform="translate(0 28.217) rotate(-19.475)"/></g></g></g></g></g></g></g><g transform="translate(168.391 183.147)"><g transform="translate(20.304 225.493)"><path d="M1625.34,1321.641c-1.787-1.065-3.536-4.106-4.03-5.171a6.219,6.219,0,0,1-.038-2.015h0c.19-1.635.456-3.346.684-5.095.228-1.331.418-2.319.418-2.319h-.038c.494-3.308,1.064-6.806,1.711-10.342h-9.125c-.038,3.46-.076,6.5-.228,8.821h0s-.456,7.794-1.331,9.5-2.129,3.65-2.281,5.931a3.578,3.578,0,0,0,2.243,3.46c1.559.76,2.548-.114,3.118-.038,3.194.3,3.84,2.737,9.353,3.5a8.362,8.362,0,0,0,5.741-1.6,1.254,1.254,0,0,0,.19-1.711C1631.309,1324.074,1627.2,1322.782,1625.34,1321.641Z" transform="translate(-1610.247 -1296.7)" fill="url(#k)"/><path d="M1697.1,1322.934a11.687,11.687,0,0,1-4.828-4.524c-.456-1.1-.418-6.768-.38-9.125.038-3.384.19-7.756.418-12.585h-9.239c.684,5.323,1.293,10.113,1.559,13.269.114,1.939.494,6.654-.076,8.136-.685,1.825-2.471,3.992-2.357,6.312a3.578,3.578,0,0,0,2.737,3.117c1.711.494,2.623-.494,3.194-.494,3.346-.19,4.3,2.129,10.113,2.053a9,9,0,0,0,5.741-2.471,1.238,1.238,0,0,0,0-1.711C1703.559,1324.455,1699.148,1323.77,1697.1,1322.934Z" transform="translate(-1654.323 -1296.7)" fill="url(#l)"/><path d="M1630.535,1358.7c.38-.685.456-1.749.076-1.977a31.769,31.769,0,0,0-3.46-1.977c-1.065-.456-2.776-.875-2.167-.532.608.3-.456,1.521-1.445,1.483-3.46-.114-6.045-2.357-8.022-2.813-2.852-.646-4.106-3.954-4.258-4.487-.532.342-1.711,3.08-1.939,3.916a6.576,6.576,0,0,0-.342,2.966,6.827,6.827,0,0,1,.38,2.813,5.358,5.358,0,0,0,2.053.684,8.663,8.663,0,0,0,2.205-.038l.19-1.787a9.628,9.628,0,0,1,1.749.114,9.374,9.374,0,0,1,2.7,1.179c.418.456.722,1.293,1.255,1.559a11.5,11.5,0,0,0,4.562,1.027C1627.759,1361.023,1629.888,1359.92,1630.535,1358.7Z" transform="translate(-1608.902 -1328.743)" fill="url(#m)"/><path d="M1703.442,1364.238c.3-.76.266-1.787-.152-1.977a31.1,31.1,0,0,0-3.84-1.445c-1.178-.3-2.966-.418-2.319-.228.646.228-.3,1.6-1.331,1.711-3.574.38-6.54-1.445-8.631-1.559-3.042-.19-4.182-3.308-4.372-3.84a13.478,13.478,0,0,0-2.091,4.182,6.675,6.675,0,0,0,0,3,6.776,6.776,0,0,1,.76,2.737,5.449,5.449,0,0,0,2.205.38,8.71,8.71,0,0,0,2.281-.342v-1.787a10.834,10.834,0,0,1,1.825-.152,6,6,0,0,1,2.966,1.026,5.618,5.618,0,0,0,1.6,1.141,12.17,12.17,0,0,0,4.714.3C1700.856,1366.975,1702.909,1365.531,1703.442,1364.238Z" transform="translate(-1653.294 -1334.012)" fill="url(#n)"/></g><path d="M1627.23,1031.481s10,78.778,10.57,113.376c0,0-46.5,8.517-82.2-3.954,0,0,4.638-82.846,11.9-111.7Z" transform="translate(-1555.562 -905.41)" fill="url(#o)"/><path d="M1640.121,927.542c2.89-.684,5.019-3.688,3.992-6.5-5.817-15.93-9.581-42.469-10.493-56.954-1.065-16.767-41.518,26.994-53.913,63.3C1574.65,942.141,1623.7,931.458,1640.121,927.542Z" transform="translate(-1570.278 -800.786)" fill="url(#p)"/><path d="M1732.915,805.973c.19-.722-.684-.951-1.559.494a8.112,8.112,0,0,1-5.551,3.688c-.152-.418.38-.532.76-1.369.456-.951.152-1.6-.266-1.749-.3-.114-1.026.951-1.293,1.179-.951.8-1.863,1.6-2.814,2.4a6,6,0,0,0-2.053,2.776,2.614,2.614,0,0,0-.152.684c-6.273,4.791-26.956,10.722-29.732,12.433-1.825,1.1-31.557-.114-31.557-.114l3.422,12.242c9.429-.114,26.348-1.711,28.667-2.167,8.745-1.711,27.413-16.425,29.352-17.717,1.293.342,8.4-1.1,9.467-2.776a2.829,2.829,0,0,0,.494-1.825c.608-.722,1.673-3.308-.152-2.776C1731.927,810.079,1732.383,808.14,1732.915,805.973Z" transform="translate(-1619.463 -766.702)" fill="url(#q)"/><path d="M1742.075,828l3.117,5.855s-21.481,16.425-29.313,17.6a100.365,100.365,0,0,1-17.679.57l3.194-13.459s7.6,2.167,11.52.989C1716.868,838.341,1742.075,828,1742.075,828Z" transform="translate(-1643.945 -780.707)" fill="url(#r)"/><path d="M1680.092,729.1s.646,6.387,4.03,9.239-1.711,1.141-1.14,6.235-2.852,7.946-6.806,7.376-7.376-21.557-7.376-21.557Z" transform="translate(-1625.723 -719.409)" fill="url(#s)"/><path d="M1610.515,714.594s-9.163-2.281-9.087,4.524c.19,14.98,9.163,5.209,18.554,43.875,0,0-22.546,79.12-64.482,67.22,0,0,9.619-90.678,20.987-111.665C1587.855,697.6,1604.28,700.983,1610.515,714.594Z" transform="translate(-1555.5 -703.61)" fill="url(#t)"/></g><g transform="translate(25.131 49.578)"><path d="M1192.615,384.913l-3.384-6.806a7.5,7.5,0,0,0-3.612-3.5l-6.92-3.194,6.806-3.384a7.5,7.5,0,0,0,3.5-3.612l3.194-6.92,3.384,6.806a7.5,7.5,0,0,0,3.612,3.5l6.92,3.194-6.806,3.384a7.5,7.5,0,0,0-3.5,3.612Z" transform="translate(-1178.7 -355.523)" fill="url(#u)"/><path d="M1227.383,451.4l-2.129-4.3a4.757,4.757,0,0,0-2.281-2.205l-4.372-2.015,4.3-2.129a4.757,4.757,0,0,0,2.205-2.281l2.015-4.372,2.129,4.3a4.756,4.756,0,0,0,2.281,2.205l4.372,2.015-4.3,2.129a4.756,4.756,0,0,0-2.205,2.281Z" transform="translate(-1203.43 -403)" fill="url(#v)"/><path d="M1268.741,363.592l-1.407-2.813a3.043,3.043,0,0,0-1.483-1.445L1263,358.041l2.813-1.407a3.043,3.043,0,0,0,1.445-1.483l1.293-2.852,1.407,2.814a3.043,3.043,0,0,0,1.483,1.445l2.852,1.293-2.814,1.407a3.044,3.044,0,0,0-1.445,1.483Z" transform="translate(-1230.949 -352.3)" fill="url(#w)"/></g><g transform="translate(437.345 217.323)"><path d="M2309.283,839.109l2.7-5.4a6.113,6.113,0,0,1,2.852-2.775l5.475-2.509-5.4-2.7a6.113,6.113,0,0,1-2.775-2.852l-2.509-5.475-2.7,5.4a6.114,6.114,0,0,1-2.851,2.775l-5.475,2.509,5.4,2.7a6.114,6.114,0,0,1,2.776,2.852Z" transform="translate(-2285.027 -808.313)" fill="url(#x)"/><path d="M2269.667,807.263l1.711-3.422a3.712,3.712,0,0,1,1.825-1.749l3.46-1.6-3.422-1.711a3.712,3.712,0,0,1-1.749-1.825l-1.6-3.46-1.711,3.422a3.712,3.712,0,0,1-1.825,1.749l-3.46,1.6,3.422,1.711a3.714,3.714,0,0,1,1.749,1.825Z" transform="translate(-2262.9 -793.5)" fill="url(#y)"/><path d="M2294.565,890.62l1.445-2.852a3.374,3.374,0,0,1,1.521-1.483l2.889-1.331-2.851-1.445a3.373,3.373,0,0,1-1.483-1.521l-1.331-2.889-1.445,2.851a3.374,3.374,0,0,1-1.521,1.483l-2.89,1.331,2.852,1.445a3.373,3.373,0,0,1,1.483,1.521Z" transform="translate(-2279.015 -846.555)" fill="url(#z)"/></g></g></g></svg>